<svg id="Layer_1" data-name="Layer 1" xmlns="http://www.w3.org/2000/svg" viewBox="0 0 100 100"><defs><style>.cls-1{fill:#a3c3e1;}</style></defs><title>contactus</title><path class="cls-1" d="M97.33,77.43a22.24,22.24,0,0,1-.67,4.74,26.77,26.77,0,0,1-1.41,4.6Q93.83,90.13,87,93.9a26.07,26.07,0,0,1-12.5,3.43A26.62,26.62,0,0,1,71,97.09a27.73,27.73,0,0,1-3.87-.84q-2.12-.61-3.16-1T60.22,93.9q-2.69-1-3.29-1.21a60.85,60.85,0,0,1-11.76-5.58A101.24,101.24,0,0,1,27.41,72.59,101.24,101.24,0,0,1,12.89,54.84,60.85,60.85,0,0,1,7.31,43.08q-.2-.6-1.21-3.29T4.73,36.05q-.37-1-1-3.16A27.73,27.73,0,0,1,2.91,29a26.62,26.62,0,0,1-.23-3.56A26.07,26.07,0,0,1,6.1,13q3.76-6.79,7.13-8.2a26.77,26.77,0,0,1,4.6-1.41,22.24,22.24,0,0,1,4.74-.67,3.76,3.76,0,0,1,1.41.2q1.21.4,3.56,5.11.74,1.28,2,3.63t2.35,4.27Q33,17.8,34,19.48q.2.27,1.18,1.68a19,19,0,0,1,1.45,2.39,4.4,4.4,0,0,1,.47,1.92q0,1.35-1.92,3.36A32.81,32.81,0,0,1,31,32.52a40.53,40.53,0,0,0-4.17,3.56Q24.93,38,24.93,39.18a4.51,4.51,0,0,0,.34,1.51,14.05,14.05,0,0,0,.57,1.38q.23.47.94,1.61T27.55,45a70.49,70.49,0,0,0,11.7,15.8A70.49,70.49,0,0,0,55,72.45l1.28.77q1.14.7,1.61.94a14.05,14.05,0,0,0,1.38.57,4.51,4.51,0,0,0,1.51.34q1.21,0,3.09-1.92A40.53,40.53,0,0,0,67.48,69a32.81,32.81,0,0,1,3.7-4.17q2-1.92,3.36-1.92a4.4,4.4,0,0,1,1.92.47,19,19,0,0,1,2.39,1.45L80.52,66q1.68,1,3.6,2.08t4.27,2.35q2.35,1.28,3.63,2,4.7,2.35,5.11,3.56A3.76,3.76,0,0,1,97.33,77.43Z"/></svg>