<svg id="Layer_1" data-name="Layer 1" xmlns="http://www.w3.org/2000/svg" viewBox="0 0 126 100"><defs><style>.cls-1{fill:#a3c3e1;}</style></defs><title>contactus</title><path class="cls-1" d="M91.1,19.82a26.77,26.77,0,0,1,0,34.55A42.69,42.69,0,0,1,73.86,66.9a60.56,60.56,0,0,1-23.76,4.6,67.5,67.5,0,0,1-11.83-1.08A56.53,56.53,0,0,1,19.58,79a56.37,56.37,0,0,1-5.78,1.08h-.2a2.1,2.1,0,0,1-1.38-.54,2.21,2.21,0,0,1-.77-1.41,1.37,1.37,0,0,1-.07-.44,2.59,2.59,0,0,1,0-.44,1.41,1.41,0,0,1,.13-.4l.17-.34a3,3,0,0,1,.24-.37,2.71,2.71,0,0,1,.27-.34l.3-.34.27-.3q.34-.4,1.55-1.68t1.75-2l1.51-1.95A17,17,0,0,0,19.27,67q.7-1.34,1.38-3A39.28,39.28,0,0,1,7.55,52.15,26.39,26.39,0,0,1,2.77,37.09,27.14,27.14,0,0,1,9.09,19.82,42.69,42.69,0,0,1,26.33,7.28a60.56,60.56,0,0,1,23.76-4.6,60.57,60.57,0,0,1,23.76,4.6A42.7,42.7,0,0,1,91.1,19.82ZM123.23,54.3a26.35,26.35,0,0,1-4.77,15.09,39.45,39.45,0,0,1-13.11,11.86q.67,1.61,1.38,3a16.93,16.93,0,0,0,1.68,2.59l1.51,1.95q.54.7,1.75,2t1.55,1.68l.27.3.3.34a2.81,2.81,0,0,1,.27.34,3.07,3.07,0,0,1,.23.37l.17.34a1.43,1.43,0,0,1,.13.4,2.65,2.65,0,0,1,0,.44,1.38,1.38,0,0,1-.07.44,2.49,2.49,0,0,1-.87,1.48,2,2,0,0,1-1.48.47,53.68,53.68,0,0,1-24.47-9.68,67.51,67.51,0,0,1-11.83,1.08q-18.22,0-31.73-8.87,3.9.27,5.91.27a71,71,0,0,0,20.77-3,59.51,59.51,0,0,0,17.75-8.67,45,45,0,0,0,12.91-14.25,34.59,34.59,0,0,0,3-27.29,39.85,39.85,0,0,1,13.71,12A26.43,26.43,0,0,1,123.23,54.3Z"/></svg>