<svg id="Layer_1" data-name="Layer 1" xmlns="http://www.w3.org/2000/svg" viewBox="0 0 48.15 32.1"><defs><style>.cls-1{fill:#c2c1c1;}</style></defs><path class="cls-1" d="M48.15,2.8V29.3a2.72,2.72,0,0,1-.8,2,2.65,2.65,0,0,1-2,.81H2.76a2.64,2.64,0,0,1-2-.81,2.72,2.72,0,0,1-.8-2V2.8a2.72,2.72,0,0,1,.8-2,2.64,2.64,0,0,1,2-.82H45.39a2.64,2.64,0,0,1,2,.82A2.72,2.72,0,0,1,48.15,2.8ZM7.94,13.56A3.28,3.28,0,0,0,6.9,11a3.8,3.8,0,0,0-2.7-1h-2v7h2a3.72,3.72,0,0,0,2.49-.79A3.36,3.36,0,0,0,7.94,13.56Zm-1.4,0a2.28,2.28,0,0,1-.75,1.76,2.72,2.72,0,0,1-1.86.54H3.57v-4.6h.36a2.61,2.61,0,0,1,1.86.56A2.17,2.17,0,0,1,6.54,13.56Zm2,3.47H9.93v-7H8.57Zm6.69-2.11a1.83,1.83,0,0,0-.43-1.3,4.17,4.17,0,0,0-1.58-.88,2.71,2.71,0,0,1-.83-.4.6.6,0,0,1-.22-.48.67.67,0,0,1,.28-.55,1.14,1.14,0,0,1,.72-.22,1.46,1.46,0,0,1,1.11.56l.71-.92A3,3,0,0,0,13,10a2.2,2.2,0,0,0-1.55.58A1.84,1.84,0,0,0,10.8,12a1.69,1.69,0,0,0,.38,1.16,3.16,3.16,0,0,0,1.34.76,4.7,4.7,0,0,1,.94.4.79.79,0,0,1,.4.71.93.93,0,0,1-.29.7,1,1,0,0,1-.75.28A1.57,1.57,0,0,1,11.33,15l-.88.84a2.8,2.8,0,0,0,2.4,1.34,2.41,2.41,0,0,0,1.74-.64A2.19,2.19,0,0,0,15.26,14.92Zm31.56,14.5v-11q-1.36.84-3,1.76t-5,2.44q-3.3,1.53-6.89,2.87T23.22,28.3q-5.14,1.46-10.53,2.47H45.48a1.36,1.36,0,0,0,1.34-1.34ZM21.07,16.8V15.19a2.3,2.3,0,0,1-1.63.77,2.24,2.24,0,0,1-1.68-.68,2.37,2.37,0,0,1-.66-1.72,2.39,2.39,0,0,1,.66-1.7,2.13,2.13,0,0,1,1.62-.7,2.38,2.38,0,0,1,1.69.79V10.34a3.72,3.72,0,0,0-1.67-.42A3.61,3.61,0,0,0,16.77,11a3.65,3.65,0,0,0,0,5.16,3.57,3.57,0,0,0,2.61,1.06A3.83,3.83,0,0,0,21.07,16.8Zm6.85-.52a3.78,3.78,0,0,0,0-5.35,3.78,3.78,0,0,0-6.46,2.67,3.78,3.78,0,0,0,6.46,2.67Zm4.28.94,3-7.15H33.73l-1.88,4.68L30,10.07H28.51l3,7.15ZM35.82,17h3.85V15.86H37.18V14h2.4V12.81h-2.4V11.26h2.49V10.07H35.82ZM44,17h1.67l-2.19-2.93a1.81,1.81,0,0,0,1.59-2,1.88,1.88,0,0,0-.65-1.53,2.75,2.75,0,0,0-1.82-.54h-2v7h1.36V14.25h.19Zm-.33-4.83q0,1.09-1.34,1.09h-.4V11.18h.42Q43.66,11.18,43.66,12.21Z"/></svg>