<svg id="Layer_1" data-name="Layer 1" xmlns="http://www.w3.org/2000/svg" viewBox="0 0 100 100"><defs><style>.cls-1{fill:#a3c3e1;}</style></defs><title>contactus</title><path class="cls-1" d="M97.33,37.22V88.87a8.48,8.48,0,0,1-8.45,8.45H11.13a8.14,8.14,0,0,1-6-2.48,8.14,8.14,0,0,1-2.48-6V37.22A1.55,1.55,0,0,1,3.26,36l2.06-1.82Q7,32.68,7.51,32.23l2.4-2q1.85-1.53,3.7-2.93l5.07-3.86Q21.9,21,26.26,17.81t10.17-7.42L39.2,8.27Q41.71,6.37,43,5.5a23.52,23.52,0,0,1,3.38-1.85,9,9,0,0,1,3.64-1,9,9,0,0,1,3.64,1,24.59,24.59,0,0,1,3.43,1.88q1.32.9,3.75,2.75t2.75,2.11q5.81,4.23,10.17,7.42t7.58,5.65l5.07,3.86q1.85,1.4,3.7,2.93l2.4,2q.55.45,2.19,1.9L96.74,36A1.56,1.56,0,0,1,97.33,37.22ZM67.54,68.12Q81.43,58,85.76,54.81a1.52,1.52,0,0,0,.66-1.08,1.71,1.71,0,0,0-.34-1.24l-2-2.75A1.55,1.55,0,0,0,83,49.08a1.75,1.75,0,0,0-1.27.34q-12.2,8.93-18.12,13.2-.26.16-2.75,2.06t-3.78,2.77a25.13,25.13,0,0,1-3.41,1.85,9,9,0,0,1-3.64,1,9,9,0,0,1-3.64-1,25,25,0,0,1-3.41-1.85q-1.29-.87-3.78-2.77t-2.75-2.06q-9.82-7.08-18.12-13.2A1.75,1.75,0,0,0,17,49.08a1.54,1.54,0,0,0-1.11.66l-2,2.75a1.71,1.71,0,0,0-.34,1.24,1.52,1.52,0,0,0,.66,1.08Q18.57,58,32.46,68.12q.53.42,2.64,2t3.43,2.48q1.32.9,3.38,2.09A18.2,18.2,0,0,0,46,76.46a14,14,0,0,0,8,0,18.44,18.44,0,0,0,4.17-1.82q2.14-1.24,3.41-2.09T65,70Q67.17,68.38,67.54,68.12Z"/></svg>