<svg id="Layer_1" data-name="Layer 1" xmlns="http://www.w3.org/2000/svg" viewBox="0 0 300 300"><defs><style>.cls-1{fill:#a8c3de;}.cls-2{fill:#fff;}</style></defs><title>connect</title><path class="cls-1" d="M150.4,3.82A146.72,146.72,0,0,0,3.41,149.2c0,81.12,65.06,147,146.18,147s146.18-65.06,147-146.18C296.59,69.68,231.53,3.82,150.4,3.82Z"/><path class="cls-2" d="M160.84,183.73c-13.65,18.47-40.16,24.1-61,16.06s-36.14-30.52-33.73-53c.8-27.31,25.7-51.41,53.82-50.6,13.65-.8,25.7,5.62,36.14,13.65a109.64,109.64,0,0,1-13.65,13.65c-12-8.84-29.72-11.24-41.77-1.61C82.93,133.94,82.13,162,99,175.7c16.06,15.26,47.39,7.23,52.21-15.26-10.44,0-20.88,0-30.52-.8V141.16h51.41C172.09,156.43,169.68,171.69,160.84,183.73Z"/><path class="cls-2" d="M234.74,158H219.48v15.26H204.22V158H189V142.77h15.26V127.51h15.26v15.26h15.26Z"/></svg>