<svg id="Layer_1" data-name="Layer 1" xmlns="http://www.w3.org/2000/svg" viewBox="0 0 300 300"><defs><style>.cls-1{fill:#a8c3de;}.cls-2{fill:#fff;}</style></defs><title>connect</title><path class="cls-1" d="M150.4,3.82A146.72,146.72,0,0,0,3.41,149.2c0,81.12,65.06,147,146.18,147s146.18-65.06,147-146.18C296.59,69.68,231.53,3.82,150.4,3.82Z"/><path class="cls-2" d="M219.48,178.92a44.82,44.82,0,0,1-3.21,16.87,24.68,24.68,0,0,1-8,12,35.07,35.07,0,0,1-12,8c-4.82,1.61-9.64,3.21-16.87,3.21s-9.64.8-28.92.8-21.69,0-28.92-.8a44.82,44.82,0,0,1-16.87-3.21,24.68,24.68,0,0,1-12-8,35.07,35.07,0,0,1-8-12c-1.61-4.82-3.21-9.64-3.21-16.87s-.8-9.64-.8-28.92,0-21.69.8-28.92a44.82,44.82,0,0,1,3.21-16.87,24.68,24.68,0,0,1,8-12,35.07,35.07,0,0,1,12-8c4.82-1.61,9.64-3.21,16.87-3.21s9.64-.8,28.92-.8,21.69,0,28.92.8a44.82,44.82,0,0,1,16.87,3.21,24.68,24.68,0,0,1,12,8,35.07,35.07,0,0,1,8,12c1.61,4.82,3.21,9.64,3.21,16.87s.8,9.64.8,28.92C219.48,169.28,219.48,171.69,219.48,178.92Z"/><path class="cls-1" d="M204.22,109c-1.61-3.21-2.41-5.62-4.82-8a16.67,16.67,0,0,0-8-4.82,35.8,35.8,0,0,0-12.85-2.41c-7.23,0-9.64-.8-28.11-.8s-20.88,0-28.11.8a35.8,35.8,0,0,0-12.85,2.41c-3.21,1.61-5.62,2.41-8,4.82a16.67,16.67,0,0,0-4.82,8,35.8,35.8,0,0,0-2.41,12.85c0,7.23-.8,9.64-.8,28.11s0,20.88.8,28.11A35.8,35.8,0,0,0,96.59,191c1.61,3.21,2.41,5.62,4.82,8a16.67,16.67,0,0,0,8,4.82,35.8,35.8,0,0,0,12.85,2.41c7.23,0,9.64.8,28.11.8s20.88,0,28.11-.8a35.8,35.8,0,0,0,12.85-2.41c3.21-1.61,5.62-2.41,8-4.82a16.67,16.67,0,0,0,4.82-8,35.8,35.8,0,0,0,2.41-12.85c0-7.23.8-9.64.8-28.11s0-20.88-.8-28.11A32,32,0,0,0,204.22,109ZM149.6,186.14A36.14,36.14,0,1,1,185.74,150,36,36,0,0,1,149.6,186.14Zm37.75-65.06a8,8,0,1,1,8-8C195.38,117.07,191.37,121.08,187.35,121.08Z"/><circle class="cls-1" cx="149.6" cy="150" r="23.29"/></svg>