<svg id="Layer_1" data-name="Layer 1" xmlns="http://www.w3.org/2000/svg" viewBox="0 0 80 80"><defs><style>.cls-1{fill:#656565;}</style></defs><title>mobile_menu</title><path class="cls-1" d="M64,9.18,78.66,28.76a2.44,2.44,0,0,1-.15,3.14L41.8,71.05a2.49,2.49,0,0,1-3.59,0L1.49,31.89a2.43,2.43,0,0,1-.15-3.14L16,9.18a2.24,2.24,0,0,1,2-1H62A2.24,2.24,0,0,1,64,9.18ZM21.41,27.76l7.8-14.68h-10l-11,14.68ZM8.95,32.66,32.77,58.09,21.3,32.66ZM40,62.18,53.35,32.66H26.65ZM27,27.76H53l-7.8-14.68H34.76ZM47.23,58.09,71.05,32.66H58.7ZM58.59,27.76H71.82l-11-14.68h-10Z"/></svg>