<svg id="Layer_1" data-name="Layer 1" xmlns="http://www.w3.org/2000/svg" viewBox="0 0 48.15 32.1"><defs><style>.cls-1{fill:#c2c1c1;}</style></defs><path class="cls-1" d="M48.15,2.67V29.43a2.71,2.71,0,0,1-2.68,2.67H2.67a2.57,2.57,0,0,1-1.88-.79A2.57,2.57,0,0,1,0,29.43V2.67A2.57,2.57,0,0,1,.79.79,2.57,2.57,0,0,1,2.67,0h42.8a2.57,2.57,0,0,1,1.88.79A2.57,2.57,0,0,1,48.15,2.67Zm-37.43,10a2,2,0,0,0-.8-1.79,3.64,3.64,0,0,0-2.1-.55H4.47a.4.4,0,0,0-.44.4L2.67,19.27a.28.28,0,0,0,.06.23.26.26,0,0,0,.21.1H4.54a.41.41,0,0,0,.46-.4l.38-2.3a.4.4,0,0,1,.15-.27.64.64,0,0,1,.31-.14,2.09,2.09,0,0,1,.36,0l.4,0,.29,0a3.83,3.83,0,0,0,2.82-1A3.78,3.78,0,0,0,10.72,12.69Zm-2.53.77a1.19,1.19,0,0,1-.54,1,2.74,2.74,0,0,1-1.25.23l-.69,0,.36-2.24a.25.25,0,0,1,.27-.23h.4a2.33,2.33,0,0,1,1.21.24Q8.32,12.69,8.19,13.46Zm9,5.75L18,13.75a.28.28,0,0,0-.06-.23.26.26,0,0,0-.21-.1H16.18c-.2,0-.31.23-.36.69a2.22,2.22,0,0,0-2-.84,3.38,3.38,0,0,0-2.56,1.13,3.76,3.76,0,0,0-1.06,2.65,2.68,2.68,0,0,0,.72,2,2.59,2.59,0,0,0,1.93.73,3.26,3.26,0,0,0,1.21-.25,2.63,2.63,0,0,0,1-.67,1.41,1.41,0,0,0-.08.44c0,.22.09.33.27.33h1.44A.42.42,0,0,0,17.18,19.21Zm-1.61-2.95A1.71,1.71,0,0,1,15,17.54a1.81,1.81,0,0,1-1.31.51,1.38,1.38,0,0,1-1-.33,1.18,1.18,0,0,1-.37-.92,1.79,1.79,0,0,1,.52-1.31,1.74,1.74,0,0,1,1.3-.53,1.41,1.41,0,0,1,1,.34A1.21,1.21,0,0,1,15.57,16.26Zm11-2.55a.3.3,0,0,0-.08-.2.25.25,0,0,0-.19-.09H24.64a.44.44,0,0,0-.38.21L22,16.89l-.92-3.13a.44.44,0,0,0-.46-.33H19.1a.25.25,0,0,0-.19.09.29.29,0,0,0-.08.2s.14.44.41,1.23l.88,2.57q.47,1.38.49,1.46a19.46,19.46,0,0,0-1.71,2.51.24.24,0,0,0,.27.27h1.61a.44.44,0,0,0,.38-.21l5.33-7.69A.2.2,0,0,0,26.52,13.71Zm7.94-1a2,2,0,0,0-.8-1.79,3.64,3.64,0,0,0-2.1-.55H28.23a.41.41,0,0,0-.46.4l-1.36,8.53a.28.28,0,0,0,.06.23.26.26,0,0,0,.21.1H28.4a.33.33,0,0,0,.33-.27l.38-2.42a.4.4,0,0,1,.15-.27.64.64,0,0,1,.31-.14,2.09,2.09,0,0,1,.35,0l.4,0,.29,0a3.83,3.83,0,0,0,2.82-1A3.78,3.78,0,0,0,34.46,12.69ZM32,13.15a1.35,1.35,0,0,1-.46,1.19,2.47,2.47,0,0,1-1.38.31l-.67,0,.35-2.24a.25.25,0,0,1,.27-.23h.38a5,5,0,0,1,.73,0,1,1,0,0,1,.52.26A.8.8,0,0,1,32,13.15Zm8.94,6.06.86-5.45a.28.28,0,0,0-.06-.23.26.26,0,0,0-.21-.1H39.92c-.2,0-.31.23-.36.69a2.19,2.19,0,0,0-2-.84A3.38,3.38,0,0,0,35,14.4,3.76,3.76,0,0,0,34,17.05a2.68,2.68,0,0,0,.72,2,2.59,2.59,0,0,0,1.93.73,3.31,3.31,0,0,0,1.23-.25,2.45,2.45,0,0,0,1-.67,1.64,1.64,0,0,1,0,.19,1.12,1.12,0,0,0,0,.25q0,.34.27.33h1.44A.42.42,0,0,0,40.92,19.21Zm-1.61-2.95a1.72,1.72,0,0,1-.53,1.27,1.77,1.77,0,0,1-1.29.52,1.42,1.42,0,0,1-1-.33,1.17,1.17,0,0,1-.38-.92,1.79,1.79,0,0,1,.52-1.31A1.74,1.74,0,0,1,38,15a1.41,1.41,0,0,1,1,.34A1.21,1.21,0,0,1,39.31,16.26Zm6.17-5.6v0c0-.2-.09-.29-.27-.29H43.66a.25.25,0,0,0-.27.23L42,19.27l0,0a.29.29,0,0,0,.08.2.26.26,0,0,0,.21.09h1.38a.4.4,0,0,0,.44-.4Z"/></svg>