<svg id="Layer_1" data-name="Layer 1" xmlns="http://www.w3.org/2000/svg" viewBox="0 0 300 300"><defs><style>.cls-1{fill:#a8c3de;}.cls-2{fill:#fff;}</style></defs><title>connect</title><path class="cls-1" d="M296.59,150c0,81.12-65.86,146.18-147,146.18S3.41,230.32,3.41,149.2A145.19,145.19,0,0,1,150.4,3.82C231.53,3.82,296.59,69.68,296.59,150Z"/><path class="cls-2" d="M211.45,120.28C209,97,188.15,76.91,162.45,74.5c-38.55-4.82-73.9,19.28-74.7,57,0,17.67,5.62,28.92,20.88,35.34,11.24-10.44-2.41-17.67-3.21-29.72C102.21,105.83,140,74.5,172.89,94.58c23.29,13.65,19.28,73.09-8.84,78.71-5.62.8-12.85-.8-15.26-3.21-13.65-12.85,11.24-35.34,3.21-53-6.43-16.06-26.51-3.21-28.11,10.44-1.61,7.23,2.41,14.46,2.41,20.88,0,15.26-9.64,36.95-12,52.21-1.61,6.43-2.41,18.47-.8,24.9h9.64c7.23-12,12-30.52,15.26-45.78,2.41-1.61,3.21,3.21,4.82,4,12.85,9.64,36.95,4,47.39-4.82C206.63,166.87,213.86,141.17,211.45,120.28Z"/></svg>