<svg id="Layer_1" data-name="Layer 1" xmlns="http://www.w3.org/2000/svg" viewBox="0 0 132 24.9"><defs><style>.cls-1{fill:#c2c1c1;}</style></defs><g id="Capa_2" data-name="Capa 2"><path class="cls-1" d="M4.7,24.8H23.6s.3-9.2-6-15.6C17.6,9.2,12.1,12.4,4.7,24.8Z"/><path class="cls-1" d="M0,20.2V1.2s9.2-.3,15.6,6C15.6,7.2,12.3,12.8,0,20.2Z"/><path class="cls-1" d="M24.7,16.1V0H7.7A26.22,26.22,0,0,1,24.7,16.1Z"/><path class="cls-1" d="M28.4,0H41.2V1.7H36.1V18.1H33.6V1.8H28.4Z"/><path class="cls-1" d="M47.4,5.3h2.2v7.8a10.87,10.87,0,0,0,.1,1.8A2.31,2.31,0,0,0,52.3,17a2.94,2.94,0,0,0,3.1-2.1,3.08,3.08,0,0,0,.1-1V5.4h2.2V18.2H55.6V16.8c-.2.2-.4.3-.5.4a6,6,0,0,1-4.5,1.3,3.42,3.42,0,0,1-3-3.2c-.1-1.3-.1-2.7-.1-4.1C47.4,9.1,47.4,7.2,47.4,5.3Z"/><path class="cls-1" d="M58.7,14.2h2.1v.3A2.36,2.36,0,0,0,63.3,17a4.1,4.1,0,0,0,1.1-.1A1.92,1.92,0,0,0,66,15.4a2,2,0,0,0-1-2.1,9,9,0,0,0-2.3-.8l-1.8-.6A2.8,2.8,0,0,1,59,9.3a3.3,3.3,0,0,1,1.6-3.4,5.86,5.86,0,0,1,5.6-.1c1.3.6,1.7,1.8,1.7,3.3h-2V8.7A2.08,2.08,0,0,0,64,6.6a3.72,3.72,0,0,0-1.8.2,1.5,1.5,0,0,0-1.1,1.5,1.43,1.43,0,0,0,1,1.6c.7.3,1.4.5,2,.8a17,17,0,0,1,2.4.9,3.38,3.38,0,0,1,1.8,3.3,3.42,3.42,0,0,1-2,3.1,6.91,6.91,0,0,1-5.8,0A3.87,3.87,0,0,1,58.7,14.2Z"/><path class="cls-1" d="M75,5.2V6.5H72.6v8c0,2,.8,2.6,2.8,2a.37.37,0,0,0,.3-.1v.4c0,1.1,0,1.1-1.1,1.3a6.6,6.6,0,0,1-1.4.1c-1.9,0-2.9-.9-2.9-2.8V6.5H68.4V5.2h1.9V2.8c0-.4.1-.5.5-.5L72.6,2V5.1A19.27,19.27,0,0,0,75,5.2Z"/><path class="cls-1" d="M39.2,18.1V5.3h2.2V6.8c.5-.4.9-.9,1.3-1.2a3,3,0,0,1,3-.3.71.71,0,0,1,.3.6V7.5c-.2-.1-.3-.2-.4-.2A3.59,3.59,0,0,0,43.1,7a2.16,2.16,0,0,0-1.7,2.4v8.7Z"/><path class="cls-1" d="M85.2,8.4c-.9,2.9-1.4,4.7-2.3,7.5-.2.6-.4,1.3-.6,1.9-.1.1-.1.3-1.1.3-1.4,0-1.3.1-1.7-1.1-1.1-3.8-2.2-7.5-3.4-11.3,0-.2-.1-.3-.1-.5h2.4c1,3.5,1.8,6.8,2.8,10.4,0,0,2.1-6.8,3.3-10.4h2c1,3.6,1.9,6.8,3,10.4,0,0,1.9-6.8,3-10.4h1.9c-.2.6-.3,1.1-.5,1.7-1.1,3.5-2.2,7-3.3,10.6a1.08,1.08,0,0,1-1.1.7c-.9,0-1.3,0-1.6-.9C87,14.2,85.4,8.8,85.2,8.4Z"/><path class="cls-1" d="M126.9,11.5h-8.7c0,1.8.1,3.6,1.6,4.9a3.42,3.42,0,0,0,3.4.2c1.2-.6,1-1,1.5-2.3h2.2a4,4,0,0,1-1.5,2.9,6.16,6.16,0,0,1-6,.8,4.61,4.61,0,0,1-3.2-4.1,9.81,9.81,0,0,1,.7-6.3,5.7,5.7,0,0,1,7.4-2.2,4.8,4.8,0,0,1,2.5,3.7A18.49,18.49,0,0,0,126.9,11.5Zm-2.3-1.2c.1-2.4-1.1-3.9-3-3.8a3.44,3.44,0,0,0-3.2,3.8Z"/><path class="cls-1" d="M104.9,18.1c-3.1.2-2.7-.2-2.8-1.3a5.37,5.37,0,0,1-2.2,1.3,8.22,8.22,0,0,1-2.7.2,3.4,3.4,0,0,1-2.9-3,3.69,3.69,0,0,1,2.3-4,19,19,0,0,1,3.6-.8c.7-.1,1.2-.1,2-.2a14.77,14.77,0,0,0-.1-2.1,1.91,1.91,0,0,0-1.6-1.7,3.78,3.78,0,0,0-1.5,0,2.33,2.33,0,0,0-2,2c0,.3-.1.6-.1.9h-2c0-1.6.4-2.9,1.8-3.6a7.24,7.24,0,0,1,5.6-.4A2.76,2.76,0,0,1,104.4,8c.1,2.2,0,4.3,0,6.4v2.4a1.08,1.08,0,0,0,.6,1.1C104.9,17.8,104.9,17.9,104.9,18.1Zm-2.8-6.6a2.77,2.77,0,0,0-.9.1,14.51,14.51,0,0,0-3.3.8c-.8.3-1.1.8-1.3,2,0,1.1.4,2.3,1.7,2.4h1.3a2.57,2.57,0,0,0,2.4-2.3A29.08,29.08,0,0,0,102.1,11.5Z"/><polygon class="cls-1" points="104.9 5.3 107.3 5.3 110.5 15.7 114.1 5.3 116.1 5.3 111.5 18.1 109.1 18.1 104.9 5.3"/><path class="cls-1" d="M34.9,21.1H33.7v-.4h3v.4H35.4v3.6h-.5Z"/><path class="cls-1" d="M36.9,22.7v-.9h.5v.6h0a.84.84,0,0,1,.8-.6h.1v.5h-.2c-.4,0-.6.3-.7.7v1.8h-.5Z"/><path class="cls-1" d="M41.3,23.9v.8h-.5v-.5h0a1.06,1.06,0,0,1-1,.5c-.5,0-1-.3-1-1.3V21.7h.5v1.7c0,.6.2.9.7.9a.67.67,0,0,0,.7-.5V21.7h.5l.1,2.2Z"/><path class="cls-1" d="M42.1,24.2a1.45,1.45,0,0,0,.7.2c.4,0,.6-.2.6-.4s-.2-.4-.5-.5c-.5-.2-.8-.5-.8-.8a.92.92,0,0,1,1-.9,1.17,1.17,0,0,1,.7.2l-.1.4a.85.85,0,0,0-.6-.2.46.46,0,0,0-.5.4c0,.2.2.4.6.5s.8.4.8.9-.4.9-1.1.9a1.88,1.88,0,0,1-.8-.2Z"/><path class="cls-1" d="M45.3,21.1v.7H46v.4h-.8v1.6c0,.4.1.6.4.6h.3v.4a4.33,4.33,0,0,1-.5.1,1.42,1.42,0,0,1-.6-.2,1.55,1.55,0,0,1-.2-.8V22.3h-.5v-.4h.5v-.5Z"/><path class="cls-1" d="M46.9,23.4a.94.94,0,0,0,1,1,1.55,1.55,0,0,0,.8-.2l.1.4a2.15,2.15,0,0,1-1,.2,1.34,1.34,0,0,1-1.4-1.5,1.42,1.42,0,0,1,1.4-1.6c1,0,1.2.8,1.2,1.4v.2l-2.1.1Zm1.5-.4c0-.3-.1-.9-.7-.9a.88.88,0,0,0-.8.9Z"/><path class="cls-1" d="M52.2,20.4v4.4h-.5v-.5h0a1.17,1.17,0,0,1-1,.6,1.38,1.38,0,0,1-1.3-1.5c0-1,.6-1.6,1.3-1.6a1,1,0,0,1,.9.4h0V20.4ZM51.6,23v-.2a.87.87,0,0,0-.8-.6c-.6,0-.9.5-.9,1.1s.3,1.1.9,1.1a.76.76,0,0,0,.8-.6V23Z"/><path class="cls-1" d="M57.2,24.6a2.68,2.68,0,0,1-1.1.2,1.87,1.87,0,0,1-2-2.1,2,2,0,0,1,2.1-2.1,2.15,2.15,0,0,1,1,.2l-.1.4a1.88,1.88,0,0,0-.8-.2,1.5,1.5,0,0,0-1.6,1.7,1.47,1.47,0,0,0,1.6,1.6,2.39,2.39,0,0,0,.9-.2Z"/><path class="cls-1" d="M59,24.8a1.39,1.39,0,0,1-1.4-1.5,1.5,1.5,0,0,1,1.5-1.6,1.39,1.39,0,0,1,1.4,1.5A1.5,1.5,0,0,1,59,24.8Zm0-.4a1,1,0,0,0,.9-1.1c0-.5-.2-1.1-.9-1.1a1.12,1.12,0,0,0,0,2.2Z"/><path class="cls-1" d="M61.1,22.6v-.8h.5v.5h0a.94.94,0,0,1,.9-.5.76.76,0,0,1,.8.6h0a1.38,1.38,0,0,1,.3-.4,1.42,1.42,0,0,1,.6-.2c.4,0,1,.3,1,1.3v1.7h-.5V23.1q0-.9-.6-.9a.63.63,0,0,0-.6.5v2.1H63V23c0-.5-.2-.8-.6-.8a.94.94,0,0,0-.7.5v2.1h-.5V22.6Z"/><path class="cls-1" d="M66.2,22.6v-.8h.5v.5h0a.94.94,0,0,1,.9-.5.76.76,0,0,1,.8.6h0a1.38,1.38,0,0,1,.3-.4,1.42,1.42,0,0,1,.6-.2c.4,0,1,.3,1,1.3v1.7h-.5V23.1q0-.9-.6-.9a.63.63,0,0,0-.6.5v2.1h-.5V23c0-.5-.2-.8-.6-.8a.94.94,0,0,0-.7.5v2.1h-.5V22.6Z"/><path class="cls-1" d="M71.6,23.4a.94.94,0,0,0,1,1,1.55,1.55,0,0,0,.8-.2l.1.4a2.15,2.15,0,0,1-1,.2,1.34,1.34,0,0,1-1.4-1.5,1.42,1.42,0,0,1,1.4-1.6c1,0,1.2.8,1.2,1.4v.2l-2.1.1Zm1.5-.4c0-.3-.1-.9-.7-.9a.88.88,0,0,0-.8.9Z"/><path class="cls-1" d="M74.3,22.7v-.9h.5v.6h0a.84.84,0,0,1,.8-.6h.1v.5h-.2c-.4,0-.6.3-.7.7v1.8h-.5Z"/><path class="cls-1" d="M78.3,24.6a1.29,1.29,0,0,1-.8.2A1.42,1.42,0,0,1,76,23.3a1.52,1.52,0,0,1,1.6-1.6,1.17,1.17,0,0,1,.7.2l-.1.4c-.1-.1-.3-.1-.6-.1a1,1,0,0,0-1,1.1,1,1,0,0,0,1,1.1c.3,0,.5-.1.7-.1Z"/><path class="cls-1" d="M79.2,23.4a.94.94,0,0,0,1,1,1.55,1.55,0,0,0,.8-.2l.1.4a2.15,2.15,0,0,1-1,.2,1.34,1.34,0,0,1-1.4-1.5,1.42,1.42,0,0,1,1.4-1.6c1,0,1.2.8,1.2,1.4v.2l-2.1.1Zm1.6-.4c0-.3-.1-.9-.7-.9a.88.88,0,0,0-.8.9Z"/><path class="cls-1" d="M84.1,23.5a.4.4,0,1,1,.4-.4c-.1.3-.2.4-.4.4Z"/><path class="cls-1" d="M89.9,24.6a2.68,2.68,0,0,1-1.1.2,1.87,1.87,0,0,1-2-2.1,2,2,0,0,1,2.1-2.1,2.15,2.15,0,0,1,1,.2l-.1.4A1.88,1.88,0,0,0,89,21a1.5,1.5,0,0,0-1.6,1.7A1.47,1.47,0,0,0,89,24.3a2.39,2.39,0,0,0,.9-.2Z"/><path class="cls-1" d="M90.6,20.4h.5v4.3h-.5Z"/><path class="cls-1" d="M92.2,21.3a.32.32,0,0,1-.3-.3.3.3,0,0,1,.6,0q.15.3-.3.3ZM92,24.7V21.8h.5v2.9Z"/><path class="cls-1" d="M95.5,24.6a1.29,1.29,0,0,1-.8.2,1.42,1.42,0,0,1-1.5-1.5,1.52,1.52,0,0,1,1.6-1.6,1.17,1.17,0,0,1,.7.2l-.1.4c-.1-.1-.3-.1-.6-.1a1,1,0,0,0-1,1.1,1,1,0,0,0,1,1.1c.3,0,.5-.1.7-.1Z"/><path class="cls-1" d="M96.7,23.2h0l.3-.3.9-1h.6l-1.1,1.2,1.3,1.7H98l-1-1.4-.3.3v1.1h-.5V20.4h.5Z"/><path class="cls-1" d="M100.9,21.1v.7h.8v.4h-.8v1.6c0,.4.1.6.4.6h.3v.4a4.33,4.33,0,0,1-.5.1,1.42,1.42,0,0,1-.6-.2,1.55,1.55,0,0,1-.2-.8V22.3h-.5v-.4h.5v-.5Z"/><path class="cls-1" d="M103.4,24.8a1.39,1.39,0,0,1-1.4-1.5,1.5,1.5,0,0,1,1.5-1.6,1.39,1.39,0,0,1,1.4,1.5,1.44,1.44,0,0,1-1.5,1.6Zm.1-.4a1,1,0,0,0,.9-1.1c0-.5-.2-1.1-.9-1.1a1,1,0,0,0-.9,1.1c0,.6.3,1.1.9,1.1Z"/><path class="cls-1" d="M107.6,24.7l-1.3-4.1h.6l.6,2c.2.6.3,1.1.4,1.5h0a8.8,8.8,0,0,1,.5-1.5l.7-2h.6l-1.5,4.1Z"/><path class="cls-1" d="M111.9,24v.7h-.5v-.4h0a1.27,1.27,0,0,1-.9.4.82.82,0,0,1-.9-.8c0-.7.6-1.1,1.8-1.1v-.1a.67.67,0,0,0-.7-.7,1.88,1.88,0,0,0-.8.2l-.1-.4a1.49,1.49,0,0,1,1-.3c.9,0,1.1.6,1.1,1.2Zm-.5-.8c-.6,0-1.2.1-1.2.7,0,.4.2.5.5.5a.67.67,0,0,0,.7-.5v-.7Z"/><path class="cls-1" d="M112.8,20.4h.5v4.3h-.5Z"/><path class="cls-1" d="M114.5,21.3a.32.32,0,0,1-.3-.3.3.3,0,1,1,.3.3Zm-.3,3.4V21.8h.5v2.9Z"/><path class="cls-1" d="M118.2,20.4v4.4h-.5v-.5h0a1.17,1.17,0,0,1-1,.6,1.38,1.38,0,0,1-1.3-1.5c0-1,.6-1.6,1.3-1.6a1,1,0,0,1,.9.4h0V20.4Zm-.6,2.6v-.2a.87.87,0,0,0-.8-.6c-.6,0-.9.5-.9,1.1s.3,1.1.9,1.1a.76.76,0,0,0,.8-.6V23Z"/><path class="cls-1" d="M121.1,24v.7h-.5v-.4h0a1.27,1.27,0,0,1-.9.4.82.82,0,0,1-.9-.8c0-.7.6-1.1,1.8-1.1v-.1a.67.67,0,0,0-.7-.7,1.88,1.88,0,0,0-.8.2l-.1-.4a1.49,1.49,0,0,1,1-.3c.9,0,1.1.6,1.1,1.2V24Zm-.5-.8c-.6,0-1.2.1-1.2.7,0,.4.2.5.5.5a.67.67,0,0,0,.7-.5v-.7Z"/><path class="cls-1" d="M122.6,21.1v.7h.8v.4h-.8v1.6c0,.4.1.6.4.6h.3v.4a4.33,4.33,0,0,1-.5.1,1.42,1.42,0,0,1-.6-.2,1.55,1.55,0,0,1-.2-.8V22.3h-.5v-.4h.5v-.5Z"/><path class="cls-1" d="M124.2,23.4a.94.94,0,0,0,1,1,1.55,1.55,0,0,0,.8-.2l.1.4a2.15,2.15,0,0,1-1,.2,1.34,1.34,0,0,1-1.4-1.5,1.42,1.42,0,0,1,1.4-1.6c1,0,1.2.8,1.2,1.4v.2l-2.1.1Zm1.6-.4c0-.3-.1-.9-.7-.9a.88.88,0,0,0-.8.9Z"/><path class="cls-1" d="M130,5.2h0a2,2,0,1,0,2,2A2,2,0,0,0,130,5.2ZM130,9a1.8,1.8,0,1,1,0-3.6h0A1.8,1.8,0,1,1,130,9Z"/><path class="cls-1" d="M130.5,7.2h0a.68.68,0,0,0,.4-.6.76.76,0,0,0-.2-.5,1,1,0,0,0-.7-.2,2,2,0,0,0-.8.1V8.2h.5V7.4h.2c.3,0,.4.1.4.3s.1.5.2.6h.5a2,2,0,0,1-.1-.5A.92.92,0,0,0,130.5,7.2Zm-.6-.2h-.2V6.4h.3c.3,0,.5.1.5.4C130.4,6.9,130.3,7,129.9,7Z"/></g></svg>