<svg id="Layer_1" data-name="Layer 1" xmlns="http://www.w3.org/2000/svg" viewBox="0 0 300 300"><defs><style>.cls-1{fill:#a8c3de;}.cls-2{fill:#fff;}</style></defs><title>connect</title><path class="cls-1" d="M296.58,150.8a145.19,145.19,0,0,1-147,145.38c-81.12-.8-146.18-65.86-146.18-147S70.08,3.81,151.2,3.81A145.19,145.19,0,0,1,296.58,150.8Z"/><path class="cls-2" d="M122.17,211c56.61,0,87.56-46.9,87.56-87.56,0-1.33,0-2.66-.09-4A62.61,62.61,0,0,0,225,103.48a61.43,61.43,0,0,1-17.67,4.84,30.88,30.88,0,0,0,13.53-17,61.67,61.67,0,0,1-19.54,7.47,30.8,30.8,0,0,0-52.44,28.07A87.37,87.37,0,0,1,85.44,94.68,30.8,30.8,0,0,0,95,135.77,30.55,30.55,0,0,1,81,131.92c0,.13,0,.26,0,.39a30.79,30.79,0,0,0,24.69,30.17,30.73,30.73,0,0,1-13.9.53,30.81,30.81,0,0,0,28.75,21.37,61.75,61.75,0,0,1-38.22,13.17,62.65,62.65,0,0,1-7.34-.43A87.13,87.13,0,0,0,122.17,211"/></svg>