<svg id="Layer_1" data-name="Layer 1" xmlns="http://www.w3.org/2000/svg" viewBox="0 0 55.38 54"><defs><style>.cls-1{fill:#010101;}</style></defs><title>perks_</title><path class="cls-1" d="M44.94,50.28H10.45A3.39,3.39,0,0,1,7,46.83V12.34a3.39,3.39,0,0,1,3.45-3.45H44.94a3.39,3.39,0,0,1,3.45,3.45V46.83A3.39,3.39,0,0,1,44.94,50.28ZM10.45,11.19A1.09,1.09,0,0,0,9.3,12.34V46.83A1.09,1.09,0,0,0,10.45,48H44.94a1.09,1.09,0,0,0,1.15-1.15V12.34a1.09,1.09,0,0,0-1.15-1.15Z"/><rect class="cls-1" x="16.2" y="3.72" width="2.3" height="5.75"/><rect class="cls-1" x="36.89" y="3.72" width="2.3" height="5.75"/><path class="cls-1" d="M23.89,30.58a5.57,5.57,0,0,1-.94.86A5,5,0,0,1,22,32a4,4,0,0,1-1,.27,6.15,6.15,0,0,1-.91.07A4.94,4.94,0,0,1,18.27,32a3.85,3.85,0,0,1-1.38-.92A4,4,0,0,1,16,29.65a5.4,5.4,0,0,1-.3-1.85,5.15,5.15,0,0,1,.35-1.92,4.51,4.51,0,0,1,1-1.52,4.42,4.42,0,0,1,1.53-1,5.33,5.33,0,0,1,2-.36,4.52,4.52,0,0,1,3.81,1.73,8,8,0,0,1,1.33,5,14,14,0,0,1-.31,2.93,8.73,8.73,0,0,1-1,2.61,5.55,5.55,0,0,1-1.79,1.88,4.83,4.83,0,0,1-2.69.72,6.62,6.62,0,0,1-2.1-.32,5.14,5.14,0,0,1-1.78-1l1-1.42a4.26,4.26,0,0,0,1.35.92,4,4,0,0,0,1.51.28,3.23,3.23,0,0,0,1.81-.49A3.9,3.9,0,0,0,23,34.47a6.27,6.27,0,0,0,.71-1.82,10.18,10.18,0,0,0,.25-2.07Zm0-2.26a5,5,0,0,0-.21-1.45A3.58,3.58,0,0,0,23,25.66a3.14,3.14,0,0,0-1-.83,3.07,3.07,0,0,0-1.41-.31,3,3,0,0,0-2.25.88,3.27,3.27,0,0,0-.83,2.34A3.09,3.09,0,0,0,18.3,30a3,3,0,0,0,2.23.81,3.2,3.2,0,0,0,1.09-.19,3.83,3.83,0,0,0,1-.52,3.63,3.63,0,0,0,.78-.78A3.22,3.22,0,0,0,23.87,28.32Z"/><path class="cls-1" d="M37.28,30.58a5.57,5.57,0,0,1-.94.86,5,5,0,0,1-1,.54,4,4,0,0,1-1,.27,6.15,6.15,0,0,1-.91.07A4.94,4.94,0,0,1,31.66,32a3.85,3.85,0,0,1-1.38-.92,4,4,0,0,1-.86-1.42,5.4,5.4,0,0,1-.3-1.85,5.15,5.15,0,0,1,.35-1.92,4.51,4.51,0,0,1,1-1.52,4.42,4.42,0,0,1,1.53-1A5.33,5.33,0,0,1,34,23a4.52,4.52,0,0,1,3.81,1.73,8,8,0,0,1,1.33,5,14,14,0,0,1-.31,2.93,8.73,8.73,0,0,1-1,2.61A5.55,5.55,0,0,1,36,37.12a4.83,4.83,0,0,1-2.69.72,6.62,6.62,0,0,1-2.1-.32,5.14,5.14,0,0,1-1.78-1l1-1.42a4.26,4.26,0,0,0,1.35.92,4,4,0,0,0,1.51.28,3.23,3.23,0,0,0,1.81-.49,3.9,3.9,0,0,0,1.23-1.3,6.27,6.27,0,0,0,.71-1.82,10.18,10.18,0,0,0,.25-2.07Zm0-2.26A5,5,0,0,0,37,26.87a3.58,3.58,0,0,0-.63-1.21,3.14,3.14,0,0,0-1-.83A3.07,3.07,0,0,0,34,24.52a3,3,0,0,0-2.25.88,3.27,3.27,0,0,0-.83,2.34A3.09,3.09,0,0,0,31.69,30a3,3,0,0,0,2.23.81A3.2,3.2,0,0,0,35,30.61a3.83,3.83,0,0,0,1-.52,3.63,3.63,0,0,0,.78-.78A3.22,3.22,0,0,0,37.26,28.32Z"/></svg>