<svg id="Layer_1" data-name="Layer 1" xmlns="http://www.w3.org/2000/svg" viewBox="0 0 48.15 32.1"><defs><style>.cls-1{fill:#c2c1c1;}</style></defs><path class="cls-1" d="M48.15,24.51V29.3a2.73,2.73,0,0,1-.8,2,2.63,2.63,0,0,1-2,.83H2.76a2.63,2.63,0,0,1-2-.83,2.73,2.73,0,0,1-.8-2V15.13H2.32l.52-1.27H4l.52,1.27H9.07v-1l.4,1h2.36l.42-1v1H23.55V13.06l.21,0c.14,0,.21.1.21.29v1.8H29.8v-.48A4.14,4.14,0,0,0,31,15a7.07,7.07,0,0,0,1.1.14q.43,0,1.32,0l1.08,0L35,13.86h1.17l.52,1.27H41.4V13.92l.71,1.21h3.8V7.23H42.15v.92l-.52-.92H37.76v.92l-.48-.92h-5.2a4.75,4.75,0,0,0-2.28.46V7.23H26.21v.46a2.19,2.19,0,0,0-1.53-.46H11.56l-.9,2-.9-2H5.62v.92l-.46-.92H1.63L0,11V2.8a2.73,2.73,0,0,1,.8-2,2.63,2.63,0,0,1,2-.83H45.39a2.63,2.63,0,0,1,2,.83,2.73,2.73,0,0,1,.8,2V17H45.64a2.8,2.8,0,0,0-1.69.46V17h-3.7a2.32,2.32,0,0,0-1.63.46V17H32v.46A3.1,3.1,0,0,0,30.2,17H25.83v.46a2.83,2.83,0,0,0-1.9-.46H19l-1.13,1.21-1-1.21H9.57v7.9h7.17l1.15-1.23L19,24.87h4.41V23h.44a5.08,5.08,0,0,0,1.88-.27v2.13h3.64V22.8h.17a.19.19,0,0,1,.25.25v1.82H40.82a3,3,0,0,0,1.84-.5v.5h3.51A4.6,4.6,0,0,0,48.15,24.51ZM14.61,8.34V14H13.23V9.57l-2,4.43H10.07l-2-4.43V14H5.35l-.52-1.25H2L1.48,14H0L2.45,8.34h2l2.3,5.37V8.34H9l1.78,3.85,1.61-3.85ZM2.49,11.58H4.35L3.41,9.32ZM26.23,20a2.13,2.13,0,0,1-.12.73,1.72,1.72,0,0,1-.29.52,1.37,1.37,0,0,1-.47.34,3.85,3.85,0,0,1-.54.21,3,3,0,0,1-.66.09l-.66,0h-1.3v1.9H19.56l-1.67-1.88-1.73,1.88H10.8V18.1h5.43L17.91,20l1.71-1.86H24Q26.23,18.1,26.23,20ZM15.46,22.57,17,20.92l-1.46-1.65H12.14v1h3v1.15h-3v1.13Zm4.68-9.74V14H15.61V8.34h4.54V9.53H17v1h3.09V11.7H17v1.13Zm-1.38,8.11,2.07,2.3V18.71ZM26.52,9.86a1.7,1.7,0,0,1-.26.92,1.52,1.52,0,0,1-.7.61,1.2,1.2,0,0,1,.72.53,2.16,2.16,0,0,1,.18,1V14H25.1c0-.12,0-.31,0-.55s0-.42,0-.52a2.68,2.68,0,0,0-.06-.39.59.59,0,0,0-.18-.33A1.07,1.07,0,0,0,24.5,12a2.16,2.16,0,0,0-.62-.07H22.42v2H21.09V8.34l3.2,0a3.68,3.68,0,0,1,1.63.3A1.21,1.21,0,0,1,26.52,9.86ZM24.79,20q0-.69-.84-.69H22.19v1.44h1.74Q24.79,20.71,24.79,20ZM25,10.14q0-.6-.88-.61H22.42v1.25h1.69Q25,10.78,25,10.14Zm7.29,9.49a1.71,1.71,0,0,1-.25.9,1.44,1.44,0,0,1-.71.61,1.22,1.22,0,0,1,.71.54,2.06,2.06,0,0,1,.19,1v1.13H30.89v-.94a1.21,1.21,0,0,0-.25-.91,1.52,1.52,0,0,0-1-.22H28.23v2.07H26.88V18.1h3.22a3.51,3.51,0,0,1,1.61.31A1.23,1.23,0,0,1,32.31,19.62ZM28.67,8.34V14H27.29V8.34Zm2.15,11.54q0-.61-.88-.61H28.23v1.28h1.69Q30.83,20.54,30.83,19.88ZM44.7,8.36V14H42.78L40.23,9.76V14H37.47l-.54-1.25h-2.8L33.61,14H32q-2.7,0-2.7-2.78t2.78-2.88h1.32V9.57l-.58,0h-.6l-.48,0a.86.86,0,0,0-.45.14L31,10a.93.93,0,0,0-.24.48,3.48,3.48,0,0,0-.06.7A2.16,2.16,0,0,0,31,12.39a1.16,1.16,0,0,0,1,.42h.61l1.92-4.45h2l2.28,5.35V8.36h2.07l2.38,3.93V8.36ZM37.58,22.59v1.17H33.06V18.1h4.51v1.17H34.42v1h3.09v1.15H34.42v1.13Zm-3-11h1.86l-.92-2.26ZM43.16,22q0,1.8-2.13,1.8H38.39V22.55H41q.71,0,.71-.52a.43.43,0,0,0-.36-.44,3.13,3.13,0,0,0-.87-.1,7.45,7.45,0,0,1-1-.07,1.4,1.4,0,0,1-.88-.47,1.67,1.67,0,0,1-.36-1.15,1.52,1.52,0,0,1,.54-1.25,2.13,2.13,0,0,1,1.38-.44h2.72v1.19H40.4q-.75,0-.75.52a.42.42,0,0,0,.37.43,3.31,3.31,0,0,0,.88.08,7.21,7.21,0,0,1,1,.05,1.41,1.41,0,0,1,.88.45A1.6,1.6,0,0,1,43.16,22Zm5-1V23a2.08,2.08,0,0,1-1.84.73H43.7V22.55h2.61q.69,0,.69-.52a.42.42,0,0,0-.26-.4,1.4,1.4,0,0,0-.65-.12,5.85,5.85,0,0,1-.84,0,4.8,4.8,0,0,1-.84-.17,1.18,1.18,0,0,1-.65-.5,1.78,1.78,0,0,1-.26-1,1.51,1.51,0,0,1,.55-1.25,2.17,2.17,0,0,1,1.39-.44h2.7v1.19H45.68q-.75,0-.75.52t.61.46l1.43.1A1.52,1.52,0,0,1,48.15,20.92Z"/></svg>