<svg id="Layer_1" data-name="Layer 1" xmlns="http://www.w3.org/2000/svg" viewBox="0 0 93.74 35.84"><defs><style>.cls-1{fill:#c2c1c1;}.cls-2{fill:none;stroke:#c2c1c1;stroke-width:0.99px;}.cls-3{fill:#fff;}</style></defs><path class="cls-1" d="M32.21,35.61H88.34a5.21,5.21,0,0,0,5.4-5.08h0V5.3A5.18,5.18,0,0,0,88.34.23H32.21"/><path class="cls-2" d="M61.11,35.34H5.79a5.14,5.14,0,0,1-5.29-5V5.52A5.14,5.14,0,0,1,5.79.5H61.11"/><polygon class="cls-1" points="22.27 21.67 10.76 21.67 10.33 23.02 13.41 23.02 14 24.97 19.02 24.97 19.62 23.02 22.7 23.02 22.27 21.67"/><path class="cls-1" d="M12.65,13.95a2.74,2.74,0,0,0,.59,3.78h0l2.76,2a.69.69,0,0,1,.16,1l.43.32,1.46-2a2.74,2.74,0,0,0,.54-1.57,1.19,1.19,0,0,0-.05-.43,2.71,2.71,0,0,0-1.08-1.78L14.7,13.19a.55.55,0,0,1-.27-.43v-.11a.78.78,0,0,1,.11-.38h0l-.43-.32-1.46,2"/><path class="cls-1" d="M14.27,5.9a3.86,3.86,0,0,0-.76,2.32,2.63,2.63,0,0,0,.05.65,4.22,4.22,0,0,0,1.57,2.59l3.46,2.49a2.27,2.27,0,0,1,.86,1.35v.32A2.16,2.16,0,0,1,19,16.87h0l.32.27,2.7-3.78a4,4,0,0,0-.81-5.51l-4.16-3a1.2,1.2,0,0,1-.27-1.67l-.32-.22Z"/><path class="cls-1" d="M7.19,26.1h3.13a2.39,2.39,0,0,1,1.78.59,1.55,1.55,0,0,1,.49,1.13h0a1.64,1.64,0,0,1-.86,1.46A1.69,1.69,0,0,1,13,31h0c0,1.24-1,1.89-2.54,1.89H7.25Zm2.86,2.76c.65,0,1.08-.22,1.08-.7h0c0-.43-.32-.7-1-.7H8.71v1.4Zm.38,2.7c.65,0,1.08-.22,1.08-.76h0c0-.43-.32-.76-1.08-.76H8.71v1.51Z"/><path class="cls-1" d="M13.62,26.1h3.13a2.39,2.39,0,0,1,1.78.59A1.55,1.55,0,0,1,19,27.83h0a1.64,1.64,0,0,1-.86,1.46A1.69,1.69,0,0,1,19.46,31h0c0,1.24-1,1.89-2.54,1.89H13.68Zm2.86,2.76c.65,0,1.08-.22,1.08-.7h0c0-.43-.32-.7-1-.7H15.14v1.4Zm.38,2.7c.65,0,1.08-.22,1.08-.76h0c0-.43-.32-.76-1.08-.76H15.14v1.51Z"/><path class="cls-1" d="M20.05,26.1h3.13A2.39,2.39,0,0,1,25,26.7a1.55,1.55,0,0,1,.49,1.13h0a1.64,1.64,0,0,1-.86,1.46A1.69,1.69,0,0,1,25.89,31h0c0,1.24-1,1.89-2.54,1.89H20.11Zm2.86,2.76c.65,0,1.08-.22,1.08-.7h0c0-.43-.32-.7-1-.7H21.56v1.4Zm.38,2.7c.65,0,1.08-.22,1.08-.76h0c0-.43-.32-.76-1.08-.76H21.56v1.51Z"/><path class="cls-3" d="M42.36,16.92l-.54-1.35H39.34l-.54,1.35H37.5L40,11h1.19l2.54,5.94Zm-1.78-4.38-.81,1.89h1.57Z"/><path class="cls-3" d="M48.9,16.43a1.8,1.8,0,0,1-.54.32,3,3,0,0,1-.65.22A3.83,3.83,0,0,1,47,17a2.91,2.91,0,0,1-1.19-.22,3.16,3.16,0,0,1-1.62-1.62A2.91,2.91,0,0,1,43.93,14h0a2.91,2.91,0,0,1,.22-1.19,3,3,0,0,1,1.62-1.62A2.43,2.43,0,0,1,47,11a3.57,3.57,0,0,1,.76.05l.59.16a1.69,1.69,0,0,1,.54.27,1.46,1.46,0,0,1,.43.38l-.81,1a2.06,2.06,0,0,0-.7-.49,2.17,2.17,0,0,0-.81-.16,1.76,1.76,0,0,0-1.24.54,2.23,2.23,0,0,0-.38.59,1.6,1.6,0,0,0-.11.7h0a2.74,2.74,0,0,0,.11.7,2.1,2.1,0,0,0,.32.59,1.56,1.56,0,0,0,1.24.54,2.45,2.45,0,0,0,.86-.16,7.9,7.9,0,0,0,.7-.49l.81.81A3.26,3.26,0,0,1,48.9,16.43Z"/><path class="cls-3" d="M54.63,16.43a1.8,1.8,0,0,1-.54.32,3,3,0,0,1-.65.22,3.83,3.83,0,0,1-.76.05,2.91,2.91,0,0,1-1.19-.22,3,3,0,0,1-1.62-1.62A2.91,2.91,0,0,1,49.66,14h0a2.91,2.91,0,0,1,.22-1.19,3,3,0,0,1,1.62-1.62A2.43,2.43,0,0,1,52.74,11a3.57,3.57,0,0,1,.76.05l.59.16a1.69,1.69,0,0,1,.54.27,1.46,1.46,0,0,1,.43.38l-.81,1a2.06,2.06,0,0,0-.7-.49,2.17,2.17,0,0,0-.81-.16,1.66,1.66,0,0,0-.7.16,1.94,1.94,0,0,0-.54.38,2.23,2.23,0,0,0-.38.59A1.6,1.6,0,0,0,51,14h0a2.74,2.74,0,0,0,.11.7,2.1,2.1,0,0,0,.32.59,1.56,1.56,0,0,0,1.24.54,2.45,2.45,0,0,0,.86-.16,7.9,7.9,0,0,0,.7-.49l.81.81A3.26,3.26,0,0,1,54.63,16.43Z"/><path class="cls-3" d="M59.22,16.92,58,15H57v1.89h-1.3V11h2.7a2.45,2.45,0,0,1,1.62.54,2,2,0,0,1,.59,1.4h0a2.31,2.31,0,0,1-.32,1.19,1.61,1.61,0,0,1-.92.65L60.73,17Zm0-3.84a1,1,0,0,0-.27-.65,1.24,1.24,0,0,0-.76-.22H57v1.67h1.3a1.24,1.24,0,0,0,.76-.22.64.64,0,0,0,.22-.59Z"/><path class="cls-3" d="M61.27,16.92V11H65.7v1.13H62.51v1.19h2.76v1.13H62.51v1.24H65.7v1.13Z"/><path class="cls-3" d="M71.64,15.14a2.82,2.82,0,0,1-.65.92,2.63,2.63,0,0,1-1,.59,3.44,3.44,0,0,1-1.3.22H66.4V11h2.32a3.63,3.63,0,0,1,1.3.22,2.94,2.94,0,0,1,1,.59,3.55,3.55,0,0,1,.65.92,2.82,2.82,0,0,1,.22,1.13h0A3,3,0,0,1,71.64,15.14ZM70.51,14a2.74,2.74,0,0,0-.11-.7,1.9,1.9,0,0,0-.92-.92,1.6,1.6,0,0,0-.7-.11h-1v3.57h1a2.74,2.74,0,0,0,.7-.11,1.9,1.9,0,0,0,.92-.92,4.17,4.17,0,0,0,.11-.81Z"/><path class="cls-3" d="M72.62,16.92V11h1.3v5.89Z"/><path class="cls-3" d="M77.59,12.22v4.7h-1.3v-4.7H74.51V11h4.86v1.19Z"/><path class="cls-3" d="M79.86,16.92V11h4.43v1.13H81.1v1.19h2.81v1.13H81.15v1.24h3.19v1.13Z"/><path class="cls-3" d="M90.28,15.14a2.82,2.82,0,0,1-.65.92,2.63,2.63,0,0,1-1,.59,3.44,3.44,0,0,1-1.3.22H85V11h2.32a3.63,3.63,0,0,1,1.3.22,2.94,2.94,0,0,1,1,.59,3.55,3.55,0,0,1,.65.92,2.82,2.82,0,0,1,.22,1.13h0A4.25,4.25,0,0,1,90.28,15.14ZM89.15,14a2.74,2.74,0,0,0-.11-.7,1.9,1.9,0,0,0-.92-.92,1.6,1.6,0,0,0-.7-.11h-1v3.57h1a2.74,2.74,0,0,0,.7-.11,1.9,1.9,0,0,0,.92-.92,4.17,4.17,0,0,0,.11-.81Z"/><path class="cls-3" d="M42.85,25.56a1.28,1.28,0,0,1-.43.49,1.67,1.67,0,0,1-.7.32,4.76,4.76,0,0,1-.92.11H38V20.59h2.76a1.9,1.9,0,0,1,1.4.43,1.52,1.52,0,0,1,.54,1.13h0a1.05,1.05,0,0,1-.05.43l-.16.32a.65.65,0,0,1-.27.27,1.18,1.18,0,0,0-.27.22,1.66,1.66,0,0,1,.81.54,1.16,1.16,0,0,1,.27.92h0A1.5,1.5,0,0,1,42.85,25.56Zm-1.46-3.24a.49.49,0,0,0-.22-.43,1.44,1.44,0,0,0-.65-.16h-1.3V23h1.19a1.66,1.66,0,0,0,.7-.16c.22-.05.27-.27.27-.49Zm.32,2.38a.59.59,0,0,0-.22-.49,1.21,1.21,0,0,0-.76-.16H39.23v1.3H40.8a1.28,1.28,0,0,0,.65-.16.47.47,0,0,0,.27-.49Z"/><path class="cls-3" d="M48.47,25.08a2.14,2.14,0,0,1-.54.81,2,2,0,0,1-.81.49,3.48,3.48,0,0,1-1.08.16,2.32,2.32,0,0,1-2.54-2.11V20.54h1.3v3.35A1.6,1.6,0,0,0,45.12,25a1.27,1.27,0,0,0,.92.38A1.18,1.18,0,0,0,47,25a1.36,1.36,0,0,0,.32-1.08v-3.4h1.3v3.35A3.06,3.06,0,0,1,48.47,25.08Z"/><path class="cls-3" d="M53.6,25.51a2.4,2.4,0,0,1-.43.59,2.91,2.91,0,0,1-.7.38,2.38,2.38,0,0,1-.86.11,3.93,3.93,0,0,1-1.35-.22,3.83,3.83,0,0,1-1.19-.7l.76-.92a7,7,0,0,0,.81.54,2.55,2.55,0,0,0,.92.22,1.44,1.44,0,0,0,.65-.16.49.49,0,0,0,.22-.43h0a.32.32,0,0,0-.05-.22c-.05-.05-.11-.16-.16-.16a2.63,2.63,0,0,0-.38-.16l-.59-.16a4.75,4.75,0,0,1-.81-.27,2.1,2.1,0,0,1-.59-.32,1.09,1.09,0,0,1-.38-.49,1.73,1.73,0,0,1-.16-.76h0a1.91,1.91,0,0,1,.16-.76,2.12,2.12,0,0,1,.43-.54,4,4,0,0,1,.65-.38,2.1,2.1,0,0,1,.81-.11,2.91,2.91,0,0,1,1.19.22,3.74,3.74,0,0,1,1,.54l-.65,1a5.4,5.4,0,0,0-.76-.43,1.73,1.73,0,0,0-.76-.16.91.91,0,0,0-.54.16.55.55,0,0,0-.22.38h0a.49.49,0,0,0,.05.27c.05.05.11.16.22.22l.38.16.65.16a4.75,4.75,0,0,1,.81.27,2.23,2.23,0,0,1,.59.38,1.68,1.68,0,0,1,.38.49,1.37,1.37,0,0,1,.11.65h0A4.54,4.54,0,0,1,53.6,25.51Z"/><path class="cls-3" d="M54.46,26.48V20.59h1.3v5.89Z"/><path class="cls-3" d="M60.89,26.48,58,22.75v3.73h-1.3V20.59h1.19l2.76,3.62V20.59H62v5.89Z"/><path class="cls-3" d="M62.95,26.48V20.59h4.43v1.13H64.19v1.19h2.76v1.13H64.19v1.24h3.19v1.13Z"/><path class="cls-3" d="M72.18,25.51a2.4,2.4,0,0,1-.43.59,2.91,2.91,0,0,1-.7.38,2.38,2.38,0,0,1-.86.11,3.93,3.93,0,0,1-1.35-.22,3.83,3.83,0,0,1-1.19-.7l.76-.92a7,7,0,0,0,.81.54,2.55,2.55,0,0,0,.92.22,1.44,1.44,0,0,0,.65-.16.49.49,0,0,0,.22-.43h0a.32.32,0,0,0-.05-.22c-.05-.05-.11-.16-.16-.16a2.63,2.63,0,0,0-.38-.16l-.59-.16a4.75,4.75,0,0,1-.81-.27,2.1,2.1,0,0,1-.59-.32,1.09,1.09,0,0,1-.38-.49,1.73,1.73,0,0,1-.16-.76h0a1.91,1.91,0,0,1,.16-.76,2.12,2.12,0,0,1,.43-.54,4,4,0,0,1,.65-.38,2.1,2.1,0,0,1,.81-.11,2.91,2.91,0,0,1,1.19.22,3.74,3.74,0,0,1,1,.54l-.65,1a5.4,5.4,0,0,0-.76-.43,1.73,1.73,0,0,0-.76-.16.91.91,0,0,0-.54.16.55.55,0,0,0-.22.38h0a.49.49,0,0,0,.05.27c.05.05.11.16.22.22l.38.16.65.16a4.75,4.75,0,0,1,.81.27,2.23,2.23,0,0,1,.59.38,1.68,1.68,0,0,1,.38.49,1.37,1.37,0,0,1,.11.65h0A4.53,4.53,0,0,1,72.18,25.51Z"/><path class="cls-3" d="M77.1,25.51a2.4,2.4,0,0,1-.43.59,2.91,2.91,0,0,1-.7.38,2.38,2.38,0,0,1-.86.11,3.93,3.93,0,0,1-1.35-.22,3.83,3.83,0,0,1-1.19-.7l.76-.92a7,7,0,0,0,.81.54,2.55,2.55,0,0,0,.92.22,1.44,1.44,0,0,0,.65-.16.49.49,0,0,0,.22-.43h0a.32.32,0,0,0-.05-.22c-.05-.05-.11-.16-.16-.16a2.63,2.63,0,0,0-.38-.16l-.59-.16a4.75,4.75,0,0,1-.81-.27,2.1,2.1,0,0,1-.59-.32,1.09,1.09,0,0,1-.38-.49,1.73,1.73,0,0,1-.16-.76h0a1.91,1.91,0,0,1,.16-.76,2.12,2.12,0,0,1,.43-.54A4,4,0,0,1,74,20.7a2.1,2.1,0,0,1,.81-.11,2.91,2.91,0,0,1,1.19.22,3.74,3.74,0,0,1,1,.54l-.65,1a5.4,5.4,0,0,0-.76-.43,1.73,1.73,0,0,0-.76-.16.91.91,0,0,0-.54.16.55.55,0,0,0-.22.38h0a.49.49,0,0,0,.05.27c.05.05.11.16.22.22l.38.16.65.16a4.75,4.75,0,0,1,.81.27,2.23,2.23,0,0,1,.59.38,1.68,1.68,0,0,1,.38.49,1.37,1.37,0,0,1,.11.65h0A4.53,4.53,0,0,1,77.1,25.51Z"/></svg>