<svg id="Layer_1" data-name="Layer 1" xmlns="http://www.w3.org/2000/svg" viewBox="0 0 66 54"><defs><style>.cls-1{fill:#010101;}</style></defs><title>perks_</title><path class="cls-1" d="M20.7,41.66a6.16,6.16,0,1,1-12.22,0c-.58-.07-1.17-.11-1.75-.22a5.39,5.39,0,0,1-4.25-5.33c0-9.2,0-18.39,0-27.59A3,3,0,0,1,5.67,5.38q21.86,0,43.73,0a.93.93,0,0,1,1,.72c1.92,4.83,3.89,9.64,5.85,14.46a1.71,1.71,0,0,0,.38.53c.87.89,1.81,1.72,2.63,2.66,1.31,1.49,2.56,3,3.78,4.6a2.37,2.37,0,0,1,.43,1.34c0,3,0,5.94,0,8.91a3.26,3.26,0,0,1-3,3c-1.32,0-2.63,0-4.08,0a6.07,6.07,0,0,1-2.57,6,6.4,6.4,0,0,1-4.44.95,5.35,5.35,0,0,1-2.8-1.25,5,5,0,0,1-1.84-2.55,23.26,23.26,0,0,1-.47-3.11ZM51.82,15.42,48.88,8a.68.68,0,0,0-.72-.51H5.77a1.06,1.06,0,0,0-1.2,1.17q0,13.86,0,27.72a3.11,3.11,0,0,0,1.26,2.42,3.83,3.83,0,0,0,2.93.74,1.51,1.51,0,0,0,.81-.41,13.58,13.58,0,0,1,1.54-1.52A6.15,6.15,0,0,1,19.49,39a1.18,1.18,0,0,0,1.09.54q11.92,0,23.84,0A1.24,1.24,0,0,0,45.56,39a6.11,6.11,0,0,1,9.87.15,1,1,0,0,0,.72.4c1.34,0,2.68,0,4,0a1.2,1.2,0,0,0,1.27-1.28c0-2.59,0-5.18,0-7.77a2.47,2.47,0,0,0-.69-1.79q-1.3-1.46-2.56-3a3.21,3.21,0,0,0-2.77-1.31c-4.42.1-8.84,0-13.26,0A1.67,1.67,0,0,1,40.4,22.7q0-2.58,0-5.16a1.89,1.89,0,0,1,2.16-2.12h9.25Zm2.85,7.07-2.1-5.19a3.53,3.53,0,0,1-.77.19H42.39v5Zm-4.24,24c2.05.19,3.88-1.9,3.95-3.77a4,4,0,1,0-7.92-.19C46.43,44.62,48.41,46.71,50.43,46.5Zm-35.86,0c2.14.26,4-2,4-3.89a4.29,4.29,0,0,0-3.81-4,4.21,4.21,0,0,0-4.18,4C10.58,44.56,12.55,46.75,14.56,46.5Z"/><path class="cls-1" d="M50.37,44.16c-1,0-1.53-.53-1.53-1.61S49.36,41,50.45,41,52,41.53,52,42.68A1.41,1.41,0,0,1,50.37,44.16Z"/><path class="cls-1" d="M14.58,44.16a1.58,1.58,0,1,1,0-3.15,1.58,1.58,0,1,1,0,3.15Z"/></svg>