<svg id="Layer_1" data-name="Layer 1" xmlns="http://www.w3.org/2000/svg" viewBox="0 0 55.46 54"><defs><style>.cls-1{fill:#010101;stroke:#010101;stroke-miterlimit:10;stroke-width:0.55px;}</style></defs><title>perks_</title><path class="cls-1" d="M27.73,51.33A24.33,24.33,0,1,1,52.07,27,24.36,24.36,0,0,1,27.73,51.33Zm0-47.19A22.86,22.86,0,1,0,50.59,27,22.88,22.88,0,0,0,27.73,4.14Z"/><rect class="cls-1" x="11.79" y="29.65" width="25.07" height="1.47" transform="translate(-14.36 26.1) rotate(-45)"/><polygon class="cls-1" points="14.21 40.5 14.21 30.39 15.67 30.39 15.67 39.04 24.33 39.04 24.33 40.5 14.21 40.5"/><rect class="cls-1" x="18.6" y="22.87" width="25.07" height="1.47" transform="translate(-7.58 28.93) rotate(-45)"/><polygon class="cls-1" points="41.25 13.5 41.25 23.61 39.79 23.61 39.79 14.96 31.14 14.96 31.14 13.5 41.25 13.5"/></svg>