<svg id="Layer_1" data-name="Layer 1" xmlns="http://www.w3.org/2000/svg" viewBox="0 0 58.72 54"><defs><style>.cls-1{fill:#010101;}</style></defs><title>perks_</title><path class="cls-1" d="M29.31,45.36a3.39,3.39,0,0,1-2.59-1.24l-22-22.72A3.38,3.38,0,0,1,4,18.67a3.44,3.44,0,0,1,1.53-2.29L17.87,8.95a2.66,2.66,0,0,1,1.47-.3h20a2.66,2.66,0,0,1,1.47.3l12.28,7.51a3.6,3.6,0,0,1,1.54,2.21A3.12,3.12,0,0,1,54,21.29L31.9,44.12A3.52,3.52,0,0,1,29.31,45.36ZM19.25,10.17a1.2,1.2,0,0,0-.73.13L6.23,17.72A1.89,1.89,0,0,0,5.39,19a2.25,2.25,0,0,0,.4,1.58L27.83,43.21a1.83,1.83,0,0,0,1.48.71,1.81,1.81,0,0,0,1.46-.69l22-22.67a2,2,0,0,0,.37-1.45,1.89,1.89,0,0,0-.85-1.31L40,10.3a1.2,1.2,0,0,0-.74-.14Z"/><path class="cls-1" d="M39.38,8.92a2.39,2.39,0,0,1,1.32.26L53,16.69a3.32,3.32,0,0,1,1.41,2,2.84,2.84,0,0,1-.62,2.38L31.7,43.93a3.25,3.25,0,0,1-2.38,1.15,3.1,3.1,0,0,1-2.38-1.15L4.94,21.2a3.11,3.11,0,0,1-.62-2.47A3.18,3.18,0,0,1,5.73,16.6L18,9.18a2.39,2.39,0,0,1,1.32-.26h20M29.32,44.2A2.08,2.08,0,0,0,31,43.4L53,20.76a2.32,2.32,0,0,0,.44-1.68,2.17,2.17,0,0,0-1-1.5L40.18,10.07a1.45,1.45,0,0,0-.88-.18h-20a1.45,1.45,0,0,0-.88.18L6.09,17.49a2.17,2.17,0,0,0-1,1.5,2.54,2.54,0,0,0,.44,1.77L27.64,43.4a2.08,2.08,0,0,0,1.68.79M39.38,8.37h-20a2.88,2.88,0,0,0-1.61.34L5.45,16.13a3.72,3.72,0,0,0-1.67,2.48,3.63,3.63,0,0,0,.72,2.91l0,.05,22,22.73a3.64,3.64,0,0,0,2.78,1.32,3.81,3.81,0,0,0,2.8-1.34l22.06-22.8a3.4,3.4,0,0,0,.76-2.88,3.89,3.89,0,0,0-1.66-2.39L41,8.72a2.88,2.88,0,0,0-1.61-.35ZM6,20.41a2,2,0,0,1-.33-1.34,1.62,1.62,0,0,1,.73-1.12l12.26-7.41c.14-.09.26-.1.6-.1h20c.34,0,.46,0,.58.08L52.17,18a1.61,1.61,0,0,1,.71,1.11,1.75,1.75,0,0,1-.33,1.25L30.6,43l0,.05a1.62,1.62,0,0,1-2.48,0L28,43,6,20.41Z"/><path class="cls-1" d="M4.5,18.45H53.43a.27.27,0,0,1,.27.27v.88a.28.28,0,0,1-.28.28H4.5a.27.27,0,0,1-.27-.27v-.88A.28.28,0,0,1,4.5,18.45Z"/><path class="cls-1" d="M53.43,18.72v.88H4.5v-.88H53.43m0-.55H4.5a.55.55,0,0,0-.55.55v.88a.55.55,0,0,0,.55.55H53.43a.55.55,0,0,0,.55-.55v-.88a.55.55,0,0,0-.55-.55Z"/><path class="cls-1" d="M24,20a.28.28,0,0,1-.24-.13L18,10.39a.28.28,0,0,1,0-.21.27.27,0,0,1,.13-.17l.79-.44a.28.28,0,0,1,.37.1L24,17.48,29.08,9a.27.27,0,0,1,.47,0l5.06,8.44,4.62-7.82a.27.27,0,0,1,.37-.1l.79.44a.28.28,0,0,1,.13.17.27.27,0,0,1,0,.21l-5.65,9.45a.28.28,0,0,1-.24.13h0a.27.27,0,0,1-.24-.13L29.31,11.4l-5.06,8.44A.27.27,0,0,1,24,20Z"/><path class="cls-1" d="M29.32,9.18,34.61,18,39.47,9.8l.79.44L34.61,19.7l-5.3-8.83L24,19.7l-5.74-9.45.79-.44L24,18l5.3-8.83m0-.55a.55.55,0,0,0-.47.27l-4.83,8L19.54,9.52a.55.55,0,0,0-.74-.2L18,9.76a.55.55,0,0,0-.2.77L23.55,20a.55.55,0,0,0,.47.26h0a.55.55,0,0,0,.47-.27l4.83-8,4.83,8a.55.55,0,0,0,.47.27h0a.55.55,0,0,0,.47-.27l5.65-9.45a.55.55,0,0,0-.2-.76l-.79-.44a.55.55,0,0,0-.74.2l-4.39,7.42-4.82-8a.55.55,0,0,0-.47-.27Z"/><path class="cls-1" d="M29.31,44.46a.28.28,0,0,1-.27-.21L23.31,19a.28.28,0,0,1,0-.21.27.27,0,0,1,.18-.12l.88-.18h.05a.28.28,0,0,1,.27.22l4.59,21.81L33.9,18.67a.28.28,0,0,1,.27-.22h.05l.88.18a.27.27,0,0,1,.18.12.28.28,0,0,1,0,.21L29.58,44.25A.28.28,0,0,1,29.31,44.46Z"/><path class="cls-1" d="M34.17,18.72l.88.18L29.32,44.19,23.57,18.9l.88-.18,4.86,23.09,4.86-23.09m-9.72-.55h-.11l-.88.18A.55.55,0,0,0,23,19l5.74,25.29a.55.55,0,0,0,1.07,0L35.59,19a.55.55,0,0,0-.43-.66l-.88-.18h-.11a.55.55,0,0,0-.54.44L29.32,39.14,25,18.61a.55.55,0,0,0-.54-.44Z"/><path class="cls-1" d="M29.31,45.36a.28.28,0,0,1-.23-.13L12.66,19.84a.27.27,0,0,1,0-.27L17.5,9.42a.27.27,0,0,1,.25-.16l.11,0,.79.35a.27.27,0,0,1,.15.16.28.28,0,0,1,0,.21l-4.62,9.67L29.31,43,43.49,19.67,39.75,10a.27.27,0,0,1,.15-.35l.79-.35.11,0,.1,0a.28.28,0,0,1,.15.15l4,10.25a.28.28,0,0,1,0,.22l-.09.18L29.55,45.22a.28.28,0,0,1-.23.13Z"/><path class="cls-1" d="M40.8,9.54l4,10.25-.09.18L29.32,45.08,12.89,19.7,17.74,9.54l.79.35-4.68,9.8L29.32,43.49,43.8,19.7,40,9.89l.79-.35M17.74,9a.55.55,0,0,0-.5.31L12.39,19.46a.55.55,0,0,0,0,.54L28.85,45.38a.55.55,0,0,0,.46.25h0a.55.55,0,0,0,.46-.26L45.15,20.25l.11-.22a.55.55,0,0,0,0-.44l-4-10.25a.55.55,0,0,0-.74-.3l-.79.35a.55.55,0,0,0-.29.7l3.7,9.55L29.3,42.46,14.49,19.65,19,10.13a.55.55,0,0,0-.27-.74L18,9a.55.55,0,0,0-.22,0Z"/></svg>