<svg id="Layer_1" data-name="Layer 1" xmlns="http://www.w3.org/2000/svg" viewBox="0 0 48.15 32.1"><defs><style>.cls-1{fill:#c2c1c1;}</style></defs><path class="cls-1" d="M48.15,2.67V29.43a2.71,2.71,0,0,1-2.68,2.67H2.67a2.57,2.57,0,0,1-1.88-.79A2.57,2.57,0,0,1,0,29.43V2.67A2.57,2.57,0,0,1,.79.79,2.57,2.57,0,0,1,2.67,0h42.8a2.57,2.57,0,0,1,1.88.79A2.57,2.57,0,0,1,48.15,2.67ZM23.39,4.45a10.55,10.55,0,0,0-10-.93A10.47,10.47,0,0,0,7.72,9.17a10.49,10.49,0,0,0,0,8.25,10.5,10.5,0,0,0,5.65,5.65,10.57,10.57,0,0,0,10-.93,11.1,11.1,0,0,1-3.72-5.55,11.32,11.32,0,0,1,0-6.61A11.22,11.22,0,0,1,23.39,4.45ZM12.52,29.28h.63V27.5a1.09,1.09,0,0,0-.3-.8,1.19,1.19,0,0,0-.83-.32,1.07,1.07,0,0,0-1,.5,1,1,0,0,0-.94-.5,1,1,0,0,0-.81.42v-.33H8.65v2.82h.63V27.71q0-.75.69-.75t.63.75v1.57h.61V27.71q0-.75.69-.75t.63.75Zm3.47,0h.61V26.46H16v.33a1.13,1.13,0,0,0-.9-.42,1.32,1.32,0,0,0-1,.42,1.63,1.63,0,0,0,0,2.13,1.32,1.32,0,0,0,1,.42,1.05,1.05,0,0,0,.9-.42Zm-1.44-.77a1,1,0,0,1,0-1.29.81.81,0,0,1,.63-.25.77.77,0,0,1,.61.26.93.93,0,0,1,.23.64.92.92,0,0,1-.23.65.78.78,0,0,1-.61.25A.81.81,0,0,1,14.55,28.51Zm5.16-.08q0-.71-1-.84l-.29,0q-.48-.08-.48-.29t.52-.31a1.83,1.83,0,0,1,.9.23l.25-.5a2.11,2.11,0,0,0-1.15-.29,1.33,1.33,0,0,0-.86.25.81.81,0,0,0-.31.67q0,.69,1,.82l.27,0q.5.08.5.29t-.65.36a1.6,1.6,0,0,1-.94-.29L17.2,29a2.1,2.1,0,0,0,1.21.35,1.59,1.59,0,0,0,1-.25A.79.79,0,0,0,19.71,28.42ZM24.08,5a10.34,10.34,0,0,0-3.59,5.21,10.55,10.55,0,0,0,0,6.28,10.23,10.23,0,0,0,3.6,5.2,10.23,10.23,0,0,0,3.61-5.2,10.56,10.56,0,0,0,0-6.28A10.33,10.33,0,0,0,24.08,5ZM22.42,29.13l-.17-.52a1.13,1.13,0,0,1-.54.15q-.4,0-.4-.46V27h1v-.56h-1V25.6h-.63v.86H20.1V27h.58V28.3q0,1,1,1A1.32,1.32,0,0,0,22.42,29.13Zm1.8-2.76a1.32,1.32,0,0,0-1,.42,1.48,1.48,0,0,0-.4,1.07,1.45,1.45,0,0,0,.41,1.08,1.4,1.4,0,0,0,1,.41,1.7,1.7,0,0,0,1.15-.4l-.29-.46a1.25,1.25,0,0,1-.81.31.79.79,0,0,1-.86-.69h2.11v-.25a1.53,1.53,0,0,0-.38-1.08A1.25,1.25,0,0,0,24.22,26.38Zm0,.56a.69.69,0,0,1,.73.67H23.47A.69.69,0,0,1,24.2,26.94Zm.56-22.49A11.23,11.23,0,0,1,28.47,10a11.36,11.36,0,0,1,0,6.63,11,11,0,0,1-3.72,5.53,10.57,10.57,0,0,0,10,.93,10.5,10.5,0,0,0,5.65-5.65,10.48,10.48,0,0,0,0-8.25,10.48,10.48,0,0,0-5.66-5.65,10.55,10.55,0,0,0-10,.93Zm2.78,21.92a.8.8,0,0,0-.73.42v-.33h-.63v2.82h.63V27.69q0-.73.61-.73a.85.85,0,0,1,.38.08l.19-.58A1.07,1.07,0,0,0,27.54,26.38Zm1,.42a1.48,1.48,0,0,0,1.1,2.55,1.51,1.51,0,0,0,1-.33l-.29-.5a1.13,1.13,0,0,1-.73.25.81.81,0,0,1-.62-.25,1,1,0,0,1,0-1.29.81.81,0,0,1,.62-.25,1.19,1.19,0,0,1,.73.25l.29-.5a1.56,1.56,0,0,0-1-.33A1.46,1.46,0,0,0,28.58,26.79Zm4.71,2.49h.63V26.46h-.63v.33a1,1,0,0,0-.88-.42,1.36,1.36,0,0,0-1,.42,1.6,1.6,0,0,0,0,2.13,1.36,1.36,0,0,0,1,.42,1,1,0,0,0,.88-.42Zm-1.42-.77a1,1,0,0,1,0-1.29.78.78,0,0,1,.61-.25.8.8,0,0,1,.62.26,1,1,0,0,1,0,1.29.81.81,0,0,1-.63.25A.78.78,0,0,1,31.87,28.51Zm4.2-2.13a.8.8,0,0,0-.73.42v-.33h-.61v2.82h.61V27.69q0-.73.61-.73a.84.84,0,0,1,.38.08l.19-.58A1,1,0,0,0,36.07,26.38ZM39,29.28h.61v-4H39v1.48a1.05,1.05,0,0,0-.9-.42,1.32,1.32,0,0,0-1,.43,1.57,1.57,0,0,0,0,2.11,1.32,1.32,0,0,0,1,.43,1,1,0,0,0,.9-.42Zm-1.43-.78a1,1,0,0,1,0-1.28.86.86,0,0,1,1.23,0,.91.91,0,0,1,.24.64.9.9,0,0,1-.24.65.81.81,0,0,1-.62.25A.8.8,0,0,1,37.57,28.5Zm2.69-9h.15v-.06H40v.06h.15v.35h.06Zm.38,9.32,0,0h-.06l-.08.06a.08.08,0,0,0-.06.08.28.28,0,0,0,0,.13.22.22,0,0,0,0,.1s0,.06.06.08l.08.06.1,0,.13,0s0,0,0,0l0,0,.06-.08a.24.24,0,0,0,0-.1.3.3,0,0,0,0-.13l-.06-.08s0,0,0,0l0,0h-.13Zm0,.5-.08,0-.06,0s0,0,0-.06a.17.17,0,0,1,0-.08.12.12,0,0,1,0-.08.12.12,0,0,1,0-.08l0,0s0,0,0,0l.08,0a.12.12,0,0,1,.08,0l.08,0,0,.08v0a.15.15,0,0,1,0,.06l0,0v.06s0,0,0,0l0,0a.12.12,0,0,1-.08,0A.12.12,0,0,1,40.63,29.36Zm.23-9.47h.08v-.42h-.1l-.12.27-.12-.27h-.1v.42h.06v-.31l.13.27h.08l.1-.27Zm-.17,9.38h.06l-.08-.1h0l0,0a.08.08,0,0,0,0-.06.08.08,0,0,0,0-.06l0,0h-.19v.27h.06v-.1h0Zm0-.19v0h-.1v-.06h.1Z"/></svg>