<svg id="Layer_1" data-name="Layer 1" xmlns="http://www.w3.org/2000/svg" viewBox="0 0 48.15 32.1"><defs><style>.cls-1{fill:#c2c1c1;}</style></defs><path class="cls-1" d="M48.15,2.67V29.43a2.71,2.71,0,0,1-2.68,2.67H2.67a2.57,2.57,0,0,1-1.88-.79A2.57,2.57,0,0,1,0,29.43V2.67A2.57,2.57,0,0,1,.79.79,2.57,2.57,0,0,1,2.67,0h42.8a2.57,2.57,0,0,1,1.88.79A2.57,2.57,0,0,1,48.15,2.67Zm-37.05,14L9.88,10.49A1.39,1.39,0,0,0,8.32,9.36H2.72l0,.27Q9.17,11.29,11.1,16.66Zm3.74-7.29-3.39,9.15-.35-1.86A7.63,7.63,0,0,0,9.32,14,8.11,8.11,0,0,0,6.58,12.1L9.4,22.76h3.66l5.46-13.4Zm2.91,13.42h3.47L23.39,9.36H19.92ZM33.79,9.7a8.48,8.48,0,0,0-3.11-.56,6.77,6.77,0,0,0-4.2,1.23,3.89,3.89,0,0,0-1.65,3.2q0,2.13,3,3.64a5.79,5.79,0,0,1,1.4.86,1.12,1.12,0,0,1,.4.82,1,1,0,0,1-.63,1,3,3,0,0,1-1.44.33,7.55,7.55,0,0,1-3.26-.69l-.46-.23-.48,3a9.26,9.26,0,0,0,3.87.71,6.9,6.9,0,0,0,4.36-1.23,4.11,4.11,0,0,0,1.68-3.34q0-2.22-2.93-3.64a10.11,10.11,0,0,1-1.48-.88,1,1,0,0,1-.46-.79,1,1,0,0,1,.51-.8,2.63,2.63,0,0,1,1.47-.34,5.91,5.91,0,0,1,2.59.5l.31.17Zm8.88-.33H40a1.77,1.77,0,0,0-1.82,1.13L33,22.78h3.64l.73-2h4.43q.1.46.42,2h3.22ZM41.28,18H38.39q.29-.77,1.38-3.74l.06-.19.21-.54q.13-.33.19-.54l.25,1.15Z"/></svg>