<svg id="Layer_1" data-name="Layer 1" xmlns="http://www.w3.org/2000/svg" viewBox="0 0 46.38 54"><defs><style>.cls-1,.cls-2{fill:#010101;}.cls-1{stroke:#010101;stroke-miterlimit:10;stroke-width:0.55px;}</style></defs><title>perks_</title><path class="cls-1" d="M40.64,22.51A3.83,3.83,0,0,0,42.13,20a3.83,3.83,0,0,0-1.49-2.51,3.73,3.73,0,0,1-1-1.25A3.8,3.8,0,0,1,40,14.62a3.77,3.77,0,0,0,.25-2.84,3.8,3.8,0,0,0-2.41-1.59,3.75,3.75,0,0,1-1.46-.71A3.77,3.77,0,0,1,36,7.88a3.79,3.79,0,0,0-1-2.69,2.58,2.58,0,0,0-1.65-.48,10.77,10.77,0,0,0-1.19.09,4,4,0,0,1-1.64,0,3.75,3.75,0,0,1-1-1.25c-.52-.83-1.11-1.78-2.1-2a2,2,0,0,0-.43,0,4.5,4.5,0,0,0-2.27.92,3.82,3.82,0,0,1-1.52.71,3.82,3.82,0,0,1-1.52-.71,4.5,4.5,0,0,0-2.27-.92,1.93,1.93,0,0,0-.43,0c-1,.23-1.58,1.17-2.1,2a3.76,3.76,0,0,1-1,1.25,4,4,0,0,1-1.64,0A10.58,10.58,0,0,0,13,4.71a2.54,2.54,0,0,0-1.65.48,3.79,3.79,0,0,0-1,2.69A3.77,3.77,0,0,1,10,9.47a3.76,3.76,0,0,1-1.46.71,3.8,3.8,0,0,0-2.41,1.59,3.77,3.77,0,0,0,.25,2.84,3.8,3.8,0,0,1,.35,1.62,3.74,3.74,0,0,1-1,1.25A3.83,3.83,0,0,0,4.25,20a3.83,3.83,0,0,0,1.49,2.51,3.73,3.73,0,0,1,1,1.25,3.8,3.8,0,0,1-.35,1.62,3.77,3.77,0,0,0-.25,2.84,3.79,3.79,0,0,0,2.41,1.59,3.77,3.77,0,0,1,1.46.71,3.77,3.77,0,0,1,.38,1.59,3.79,3.79,0,0,0,1,2.69,2.58,2.58,0,0,0,1.65.48,10.77,10.77,0,0,0,1.19-.09l.28,0V52.52L23.33,48l8.84,4.52V35.2a10.6,10.6,0,0,0,1.18.09A2.54,2.54,0,0,0,35,34.81a3.79,3.79,0,0,0,1-2.69,3.77,3.77,0,0,1,.38-1.59,3.76,3.76,0,0,1,1.46-.71,3.8,3.8,0,0,0,2.41-1.59A3.77,3.77,0,0,0,40,25.38a3.81,3.81,0,0,1-.35-1.62A3.74,3.74,0,0,1,40.64,22.51ZM23.33,46.27,16,50V35.34a5.33,5.33,0,0,1,.84,1.12c.52.83,1.11,1.78,2.1,2a2,2,0,0,0,.43,0,4.5,4.5,0,0,0,2.27-.92,3.81,3.81,0,0,1,1.52-.71,3.81,3.81,0,0,1,1.52.71,4.5,4.5,0,0,0,2.27.92,2,2,0,0,0,.43,0c1-.23,1.58-1.17,2.1-2a3.75,3.75,0,0,1,1-1.25l.12,0V50ZM39.56,21.42a4.46,4.46,0,0,0-1.4,2,4.58,4.58,0,0,0,.4,2.47c.22.63.47,1.35.32,1.67s-.89.59-1.53.81a4.52,4.52,0,0,0-2.16,1.21,4.54,4.54,0,0,0-.7,2.38c-.07.67-.16,1.43-.45,1.66a3.24,3.24,0,0,1-1.71.06,10.67,10.67,0,0,0-1.2-.09,2.91,2.91,0,0,0-1.28.25,4.5,4.5,0,0,0-1.65,1.82c-.36.58-.77,1.23-1.14,1.32s-1-.33-1.54-.68a4.61,4.61,0,0,0-2.34-.95,4.61,4.61,0,0,0-2.34.95c-.56.35-1.2.76-1.54.68s-.78-.74-1.14-1.32a4.5,4.5,0,0,0-1.65-1.82,2.91,2.91,0,0,0-1.29-.25,10.83,10.83,0,0,0-1.2.09,3.23,3.23,0,0,1-1.71-.06c-.29-.23-.37-1-.44-1.66a4.54,4.54,0,0,0-.7-2.38A4.52,4.52,0,0,0,9,28.36c-.64-.22-1.37-.47-1.53-.81s.1-1,.32-1.67a4.58,4.58,0,0,0,.4-2.47,4.46,4.46,0,0,0-1.4-2c-.49-.48-1-1-1-1.42s.55-.94,1-1.42a4.46,4.46,0,0,0,1.4-2,4.59,4.59,0,0,0-.4-2.47c-.22-.63-.47-1.34-.32-1.67s.89-.59,1.53-.81a4.52,4.52,0,0,0,2.16-1.21A4.54,4.54,0,0,0,11.89,8c.07-.67.16-1.43.45-1.66A3.21,3.21,0,0,1,14,6.32a10.65,10.65,0,0,0,1.2.09,2.91,2.91,0,0,0,1.28-.25,4.5,4.5,0,0,0,1.65-1.82c.36-.58.77-1.23,1.14-1.32s1,.33,1.54.68a4.61,4.61,0,0,0,2.34.95,4.61,4.61,0,0,0,2.34-.95c.55-.35,1.2-.75,1.54-.68s.78.74,1.14,1.32a4.5,4.5,0,0,0,1.65,1.82,2.91,2.91,0,0,0,1.29.25,10.83,10.83,0,0,0,1.2-.09A3.22,3.22,0,0,1,34,6.39c.29.23.37,1,.44,1.66a4.54,4.54,0,0,0,.7,2.38,4.52,4.52,0,0,0,2.16,1.21c.64.22,1.37.47,1.53.81s-.1,1-.32,1.67a4.58,4.58,0,0,0-.4,2.47,4.46,4.46,0,0,0,1.4,2c.49.48,1,1,1,1.42S40,20.94,39.56,21.42Z"/><path class="cls-2" d="M20.07,26.6V25.08h2.48V14.16l-2.92.4V13.34l3.5-1.1h1.22V25.08h2.4V26.6Z"/></svg>