<?xml version='1.0' encoding='ascii'?>
<svg xmlns="http://www.w3.org/2000/svg" height="540" version="1.1" width="960">
    <g id="RenderLayer_LineSet" inkscape:groupmode="lineset" inkscape:label="RenderLayer_LineSet" xmlns:inkscape="http://www.inkscape.org/namespaces/inkscape">
        <g id="strokes" inkscape:groupmode="layer" inkscape:label="strokes" xmlns:inkscape="http://www.inkscape.org/namespaces/inkscape">
            <path d=" M 435.930, 461.068 444.679, 456.225 453.427, 451.381 462.176, 446.537 470.924, 441.693 479.673, 436.849 488.421, 432.005 497.170, 427.161 505.918, 422.317 514.667, 417.473 523.415, 412.629 532.164, 407.785 540.912, 402.941 549.661, 398.097 558.409, 393.253 567.158, 388.409 571.648, 385.923 572.106, 375.933 572.565, 365.944 573.024, 355.955 573.483, 345.965 573.942, 335.976 574.400, 325.986 574.859, 315.997 575.318, 306.007 575.777, 296.018 576.235, 286.028 576.694, 276.039 577.153, 266.049 577.612, 256.060 578.071, 246.070 578.529, 236.081 578.988, 226.091 579.227, 220.887 569.919, 217.231 560.611, 213.576 551.303, 209.921 541.995, 206.266 532.687, 202.611 523.379, 198.955 514.071, 195.300 504.763, 191.645 495.455, 187.990 486.147, 184.335 476.839, 180.679 467.531, 177.024 458.223, 173.369 449.185, 169.820 439.692, 172.962 430.198, 176.105 420.705, 179.247 411.212, 182.389 401.718, 185.531 392.225, 188.674 382.731, 191.816 373.238, 194.958 363.744, 198.101 354.251, 201.243 344.757, 204.385 335.264, 207.527 325.770, 210.670 316.277, 213.812 306.783, 216.954 304.759, 217.624 305.566, 227.592 306.373, 237.559 307.181, 247.526 307.988, 257.494 308.795, 267.461 309.602, 277.429 310.410, 287.396 311.217, 297.363 312.024, 307.331 312.831, 317.298 313.638, 327.265 314.446, 337.233 315.253, 347.200 316.060, 357.167 316.867, 367.135 317.675, 377.102 318.060, 381.856 326.360, 387.434 334.659, 393.012 342.959, 398.590 351.259, 404.167 359.559, 409.745 367.859, 415.323 376.159, 420.901 384.459, 426.478 392.759, 432.056 401.059, 437.634 409.359, 443.212 417.659, 448.789 425.959, 454.367 434.259, 459.945 435.930, 461.068 " fill="none" stroke="rgb(0, 0, 0)" stroke-linecap="butt" stroke-linejoin="round" stroke-opacity="1.0" stroke-width="3.0" />
            <path d=" M 304.759, 217.624 313.685, 222.133 322.611, 226.641 331.537, 231.149 340.463, 235.657 349.390, 240.166 358.316, 244.674 367.242, 249.182 376.168, 253.691 385.094, 258.199 394.020, 262.707 402.946, 267.215 411.872, 271.724 420.798, 276.232 429.725, 280.740 431.816, 281.797 " fill="none" stroke="rgb(0, 0, 0)" stroke-linecap="butt" stroke-linejoin="round" stroke-opacity="1.0" stroke-width="3.0" />
            <path d=" M 435.930, 461.068 435.701, 451.071 435.472, 441.074 435.242, 431.076 435.013, 421.079 434.783, 411.082 434.554, 401.084 434.324, 391.087 434.095, 381.090 433.866, 371.092 433.636, 361.095 433.407, 351.097 433.177, 341.100 432.948, 331.103 432.718, 321.105 432.489, 311.108 432.260, 301.111 432.030, 291.113 431.816, 281.797 441.058, 277.978 450.301, 274.159 459.543, 270.340 468.785, 266.521 478.027, 262.703 487.269, 258.884 496.511, 255.065 505.753, 251.246 514.995, 247.427 524.237, 243.608 533.479, 239.790 542.722, 235.971 551.964, 232.152 561.206, 228.333 570.448, 224.514 579.227, 220.887 " fill="none" stroke="rgb(0, 0, 0)" stroke-linecap="butt" stroke-linejoin="round" stroke-opacity="1.0" stroke-width="3.0" />
        </g>
    </g>
</svg>
