<?xml version="1.0" encoding="utf-8"?>
<!DOCTYPE svg PUBLIC "-//W3C//DTD SVG 1.1//EN" "http://www.w3.org/Graphics/SVG/1.1/DTD/svg11.dtd">
<svg version="1.1" xmlns="http://www.w3.org/2000/svg" xmlns:xlink="http://www.w3.org/1999/xlink" x="0px" y="0px" width="300px"
	 height="300px" viewBox="0 0 300 300" enable-background="new 0 0 300 300" xml:space="preserve">
<g id="box_1_" enable-background="new    ">
	<rect x="1" y="0.536" fill-rule="evenodd" clip-rule="evenodd" fill="#4BBEB5" width="300" height="300"/>
</g>
<g id="logo_1_">
	<g id="red_1_">
		<g>
			<ellipse fill-rule="evenodd" clip-rule="evenodd" fill="#DD2418" cx="150.558" cy="153.12" rx="55.608" ry="57.266"/>
		</g>
	</g>
	<g id="Go_1_">
		<g>
			<path fill-rule="evenodd" clip-rule="evenodd" fill="#FBC933" d="M226.198,116.879c-4.196-10.768-10.031-19.823-17.521-27.167
				c-7.437-7.289-16.161-12.811-26.192-16.547c-9.884-3.626-20.431-5.448-31.659-5.448c-10.933,0-21.313,1.822-31.143,5.448
				c-9.884,3.736-18.608,9.258-26.191,16.547C85.963,97.056,80,106.111,75.6,116.879c-4.436,10.786-6.663,23.266-6.663,37.42
				c0,14.228,2.153,26.707,6.442,37.438c4.252,10.768,10.105,19.786,17.578,27.02c7.437,7.271,16.143,12.756,26.137,16.456
				c9.921,3.644,20.504,5.466,31.731,5.466c11.522,0,22.327-1.822,32.413-5.466c9.977-3.7,18.609-9.186,25.897-16.456
				c7.326-7.233,13.068-16.252,17.21-27.02c2.945-7.491,4.859-15.848,5.761-25.088c0.295-3.625,0.461-7.417,0.516-11.375v-0.975
				C232.622,140.145,230.486,127.665,226.198,116.879z M181.436,196.669c-2.541,0.994-6.608,2.062-12.204,3.221
				c-5.632,1.087-12.571,1.639-20.799,1.639c-7.049,0-13.455-1.049-19.234-3.129c-5.743-2.245-10.657-5.448-14.743-9.59
				c-4.049-4.196-7.178-9.313-9.369-15.351c-2.246-6.129-3.369-13.068-3.369-20.799c0-7.896,1.233-14.872,3.681-20.965
				c2.448-6.129,5.78-11.264,10.013-15.405c4.252-4.289,9.24-7.547,14.982-9.736c5.724-2.154,11.835-3.222,18.333-3.222
				c4.398,0,8.394,0.276,11.982,0.828c3.534,0.699,6.571,1.417,9.129,2.172c2.596,0.7,4.713,1.473,6.351,2.319
				c1.711,0.792,2.926,1.454,3.682,1.951l-6.148,17.062c-2.944-1.546-6.295-2.872-10.031-3.976
				c-3.699-1.142-7.785-1.712-12.276-1.712c-9.829,0-16.934,2.742-21.333,8.228c-4.38,5.484-6.571,12.977-6.571,22.455
				c0,4.639,0.552,8.854,1.638,12.646c1.104,3.791,2.742,7.012,4.933,9.663c2.154,2.687,4.878,4.804,8.172,6.35
				c3.295,1.454,7.105,2.172,11.449,2.172c2.338,0,4.344-0.019,5.981-0.073c1.693-0.092,3.185-0.276,4.491-0.516V150.12h21.26
				V196.669z"/>
		</g>
	</g>
	<g id="_x2E__1_">
		<g>
			<path fill-rule="evenodd" clip-rule="evenodd" fill="#1C5875" d="M276.189,73.018c-4.583-3.736-9.756-5.614-15.498-5.614
				c-5.688,0-10.823,1.878-15.405,5.614c-4.547,3.699-6.812,9.129-6.812,16.326c0,7.123,2.265,12.534,6.812,16.234
				c4.582,3.699,9.718,5.54,15.405,5.54c5.742,0,10.915-1.841,15.498-5.54c4.546-3.7,6.81-9.111,6.81-16.234
				C282.999,82.146,280.735,76.717,276.189,73.018z"/>
		</g>
	</g>
</g>
</svg>
